<?xml version="1.0" standalone="no"?><!DOCTYPE svg PUBLIC "-//W3C//DTD SVG 1.1//EN" "http://www.w3.org/Graphics/SVG/1.1/DTD/svg11.dtd"><svg height="1024" node-id="1" sillyvg="true" template-height="1024" template-width="1024" version="1.1" viewBox="0 0 1024 1024" width="1024" xmlns="http://www.w3.org/2000/svg" xmlns:xlink="http://www.w3.org/1999/xlink"><defs node-id="208"><clipPath id="master_svg0_24_7939" node-id="3"><path d="M 0.00 0.00 L 1024.00 0.00 L 1024.00 1024.00 L 0.00 1024.00 Z" fill="#000000" fill-rule="nonzero" node-id="211" stroke="none" target-height="1024" target-width="1024" target-x="0" target-y="0"></path></clipPath></defs><g node-id="719"><g clip-path="url(#master_svg0_24_7939)" group-id="1" id="sillyvg_g_1" node-id="217"><path d="M 663.90 420.90 L 669.40 418.00 L 674.50 415.80 L 679.30 414.20 L 683.90 413.10 L 688.20 412.50 L 692.80 412.40 L 697.00 412.70 L 700.90 413.50 L 704.60 414.80 L 708.10 416.40 L 711.30 418.60 L 714.30 421.10 L 716.90 424.10 L 719.40 427.50 L 721.50 431.50 L 723.20 435.50 L 724.60 440.00 L 725.60 445.00 L 726.30 450.50 L 726.50 456.60 L 725.80 468.60 L 723.40 481.10 L 721.10 489.40 L 718.10 497.70 L 714.60 505.90 L 710.60 514.00 L 706.10 521.70 L 701.10 529.30 L 695.70 536.50 L 690.00 543.20 L 684.00 549.30 L 679.20 553.70 L 669.40 561.20 L 664.30 564.40 L 658.90 567.30 L 653.70 569.50 L 648.90 571.10 L 644.30 572.20 L 640.00 572.80 L 635.40 572.90 L 631.20 572.60 L 627.20 571.80 L 623.60 570.60 L 620.10 568.90 L 616.90 566.80 L 613.90 564.20 L 611.20 561.20 L 608.80 557.80 L 606.60 553.80 L 605.00 549.80 L 603.60 545.30 L 602.60 540.30 L 601.90 534.80 L 601.70 528.70 L 602.40 516.70 L 604.80 504.20 L 607.10 495.90 L 610.10 487.60 L 613.60 479.40 L 617.60 471.30 L 622.10 463.60 L 627.10 456.10 L 632.50 448.80 L 638.20 442.20 L 644.20 436.00 L 649.00 431.60 L 653.90 427.60 L 663.90 420.90 Z" fill="#3b475a" fill-rule="nonzero" group-id="1,2" node-id="221" stroke="none" target-height="160.50003" target-width="124.79999" target-x="601.7" target-y="412.4"></path><path d="M 732.80 421.20 L 638.80 590.40 L 612.00 562.10 L 698.80 413.00 L 732.80 421.20 Z" fill="#3b475a" fill-rule="nonzero" group-id="1,3" node-id="226" stroke="none" target-height="177.40002" target-width="120.79999" target-x="612" target-y="413"></path><path d="M 694.40 430.30 L 700.40 427.10 L 706.10 424.60 L 711.40 422.80 L 716.50 421.60 L 721.80 420.90 L 726.70 420.70 L 731.40 421.10 L 735.70 421.90 L 740.00 423.40 L 743.90 425.30 L 747.50 427.70 L 750.90 430.60 L 753.80 433.90 L 756.50 437.60 L 758.80 442.00 L 760.90 446.90 L 762.40 451.80 L 763.50 457.30 L 764.20 463.40 L 764.50 470.20 L 764.30 476.80 L 763.70 483.60 L 762.60 490.50 L 761.00 497.60 L 758.40 506.90 L 755.10 516.10 L 751.20 525.40 L 746.70 534.40 L 741.60 543.10 L 736.10 551.50 L 730.10 559.60 L 723.70 567.10 L 716.90 574.00 L 711.60 578.90 L 706.10 583.30 L 700.50 587.30 L 694.90 590.80 L 688.90 594.00 L 683.20 596.40 L 677.90 598.20 L 672.80 599.50 L 667.50 600.20 L 662.50 600.40 L 657.90 600.00 L 653.60 599.20 L 649.30 597.70 L 645.40 595.80 L 641.80 593.40 L 638.40 590.50 L 635.40 587.20 L 632.80 583.40 L 630.40 579.10 L 628.40 574.20 L 626.90 569.20 L 625.80 563.70 L 625.10 557.60 L 624.80 550.90 L 625.00 544.20 L 625.60 537.40 L 626.70 530.50 L 628.30 523.40 L 630.90 514.20 L 634.20 504.90 L 638.10 495.70 L 642.60 486.70 L 647.70 478.00 L 653.20 469.60 L 659.20 461.50 L 665.60 454.00 L 672.40 447.10 L 677.70 442.20 L 683.20 437.80 L 688.80 433.80 L 694.40 430.30 Z" fill="#4c5c75" fill-rule="nonzero" group-id="1,4" node-id="231" stroke="none" target-height="179.70001" target-width="139.70001" target-x="624.8" target-y="420.7"></path><path d="M 669.00 554.80 L 670.40 555.90 L 671.50 557.40 L 672.20 559.30 L 672.60 563.60 L 671.60 568.80 L 669.20 574.30 L 667.30 577.30 L 665.20 579.90 L 662.90 582.00 L 660.60 583.50 L 658.30 584.60 L 656.10 585.10 L 654.70 585.10 L 652.10 584.30 L 650.20 582.50 L 649.30 581.00 L 648.50 577.10 L 649.00 572.30 L 649.70 569.80 L 652.10 564.60 L 656.00 559.20 L 658.30 557.10 L 660.60 555.60 L 662.80 554.50 L 664.90 554.00 L 666.90 554.00 L 669.00 554.80 Z M 719.40 465.80 L 718.30 464.60 L 717.50 463.00 L 716.90 461.10 L 716.70 456.90 L 717.70 451.90 L 718.70 449.30 L 722.00 443.70 L 724.10 441.20 L 726.40 439.10 L 728.70 437.60 L 730.90 436.60 L 733.00 436.10 L 735.00 436.00 L 737.20 436.80 L 738.50 437.90 L 739.60 439.30 L 740.30 441.30 L 740.70 445.70 L 740.30 448.40 L 738.60 453.70 L 735.30 459.40 L 731.00 464.00 L 728.70 465.60 L 726.30 466.60 L 722.60 467.20 L 720.00 466.40 L 719.40 465.80 Z M 706.80 559.10 L 706.10 564.30 L 705.20 567.10 L 703.30 570.90 L 700.90 574.50 L 699.00 576.70 L 694.80 580.00 L 691.20 581.40 L 689.60 581.60 L 686.70 580.90 L 684.40 579.00 L 683.40 577.40 L 682.80 575.50 L 682.60 573.10 L 683.40 567.90 L 684.30 565.10 L 686.20 561.20 L 688.60 557.60 L 690.50 555.40 L 694.60 552.20 L 697.10 551.10 L 699.20 550.60 L 701.10 550.60 L 702.70 551.10 L 704.10 551.90 L 705.20 553.20 L 706.10 554.70 L 706.60 556.70 L 706.80 559.10 Z M 646.40 552.40 L 642.70 553.80 L 641.20 554.00 L 638.30 553.40 L 635.90 551.40 L 635.00 549.70 L 634.40 547.70 L 634.20 545.30 L 634.90 540.10 L 635.80 537.40 L 637.70 533.50 L 640.20 529.90 L 642.10 527.70 L 646.20 524.40 L 648.60 523.40 L 650.70 523.00 L 654.30 523.50 L 655.60 524.30 L 656.80 525.50 L 657.60 527.00 L 658.20 528.90 L 658.40 531.30 L 657.70 536.70 L 655.60 542.10 L 652.50 546.90 L 650.60 549.10 L 646.40 552.40 Z M 737.40 515.40 L 738.70 516.40 L 739.80 517.90 L 740.50 519.80 L 740.90 524.20 L 739.90 529.40 L 737.60 534.90 L 735.60 537.80 L 733.50 540.30 L 731.20 542.40 L 728.90 543.90 L 726.60 545.00 L 724.40 545.50 L 723.00 545.50 L 720.40 544.70 L 718.50 543.00 L 717.60 541.50 L 716.80 537.60 L 717.30 532.90 L 717.90 530.40 L 720.20 525.20 L 722.20 522.30 L 724.30 519.80 L 726.60 517.70 L 728.90 516.20 L 731.10 515.20 L 733.20 514.70 L 735.20 514.60 L 737.40 515.40 Z M 755.10 475.60 L 754.30 480.80 L 753.40 483.60 L 751.50 487.50 L 749.00 491.20 L 747.10 493.40 L 742.90 496.70 L 739.20 498.00 L 736.10 498.00 L 734.80 497.60 L 733.60 496.90 L 732.60 495.70 L 731.60 494.00 L 731.10 492.00 L 730.90 489.60 L 731.60 484.40 L 732.50 481.60 L 734.40 477.80 L 736.80 474.20 L 738.70 472.00 L 742.90 468.70 L 744.70 467.80 L 747.80 467.10 L 749.20 467.10 L 750.90 467.60 L 752.30 468.50 L 753.50 469.80 L 754.30 471.30 L 754.90 473.20 L 755.10 475.60 Z M 651.10 505.10 L 650.00 503.90 L 649.10 502.40 L 648.50 500.50 L 648.40 496.20 L 649.40 491.20 L 651.70 486.00 L 655.70 480.80 L 658.10 478.70 L 660.40 477.20 L 662.00 476.30 L 665.20 475.60 L 667.80 475.80 L 668.80 476.20 L 670.20 477.30 L 671.30 478.80 L 672.00 480.70 L 672.40 485.10 L 671.40 490.30 L 669.00 495.90 L 667.10 498.80 L 665.00 501.30 L 662.70 503.40 L 660.40 505.00 L 658.00 506.00 L 655.80 506.50 L 653.10 506.30 L 651.10 505.10 Z M 685.20 469.10 L 684.10 468.00 L 683.20 466.50 L 682.60 464.50 L 682.60 459.40 L 684.00 454.00 L 686.60 448.90 L 690.20 444.40 L 692.30 442.60 L 696.20 440.30 L 697.80 439.80 L 700.70 439.60 L 702.40 440.00 L 703.80 440.80 L 704.90 442.10 L 705.80 443.70 L 706.60 448.00 L 705.90 453.30 L 705.00 456.00 L 702.40 461.20 L 698.80 465.70 L 696.80 467.50 L 692.60 469.90 L 689.20 470.60 L 687.70 470.40 L 685.20 469.10 Z" fill="#f3a250" fill-rule="nonzero" group-id="1,5,100" node-id="238" stroke="none" target-height="149.09998" target-width="120.89996" target-x="634.2" target-y="436"></path><path d="M 646.30 552.40 L 650.50 549.10 L 652.40 546.90 L 655.60 542.00 L 657.70 536.60 L 658.50 531.40 L 658.20 528.90 L 657.60 527.00 L 656.80 525.50 L 655.60 524.30 L 654.30 523.40 L 652.60 523.00 L 653.80 524.20 L 654.70 525.80 L 655.30 527.70 L 655.50 530.10 L 654.80 535.40 L 652.60 540.80 L 649.50 545.60 L 645.50 549.60 L 641.40 552.10 L 639.30 552.60 L 637.00 552.60 L 639.60 553.80 L 641.10 554.00 L 644.40 553.30 L 646.30 552.40 Z M 703.60 446.70 L 702.90 452.00 L 702.00 454.70 L 700.80 457.40 L 697.70 462.20 L 695.80 464.40 L 691.60 467.60 L 689.60 468.60 L 687.50 469.10 L 685.20 469.20 L 687.70 470.40 L 689.30 470.60 L 692.60 469.90 L 696.70 467.50 L 700.60 463.50 L 703.80 458.70 L 705.00 456.00 L 705.90 453.30 L 706.60 448.00 L 706.40 445.60 L 705.80 443.60 L 705.00 442.10 L 703.80 440.80 L 702.40 440.00 L 700.80 439.60 L 701.90 440.80 L 702.80 442.40 L 703.40 444.30 L 703.60 446.70 Z M 669.10 554.70 L 666.80 554.00 L 668.00 555.30 L 668.80 556.80 L 669.40 558.70 L 669.60 563.00 L 668.50 567.90 L 666.20 573.10 L 664.30 576.00 L 662.20 578.50 L 659.90 580.60 L 655.60 583.10 L 653.50 583.60 L 651.30 583.70 L 653.20 584.80 L 656.00 585.00 L 658.20 584.50 L 660.60 583.40 L 662.90 581.90 L 665.20 579.80 L 667.20 577.30 L 669.10 574.40 L 671.60 568.90 L 672.60 563.60 L 672.20 559.30 L 671.50 557.30 L 670.50 555.90 L 669.10 554.70 Z M 734.30 455.10 L 732.40 458.10 L 730.30 460.50 L 728.00 462.70 L 723.70 465.20 L 721.60 465.70 L 719.40 465.80 L 721.30 466.90 L 724.10 467.10 L 726.30 466.60 L 728.70 465.50 L 731.00 463.90 L 733.20 461.80 L 737.20 456.40 L 739.70 451.00 L 740.30 448.40 L 740.70 443.30 L 740.30 441.30 L 739.60 439.30 L 738.50 437.80 L 737.20 436.70 L 735.00 436.10 L 736.90 438.90 L 737.50 440.80 L 737.70 445.00 L 736.60 450.00 L 734.30 455.10 Z M 701.10 550.60 L 702.20 551.80 L 703.10 553.30 L 703.60 555.30 L 703.90 557.80 L 703.20 563.00 L 702.30 565.70 L 699.70 570.90 L 698.00 573.20 L 694.00 577.20 L 689.80 579.60 L 687.80 580.20 L 685.50 580.20 L 688.10 581.40 L 691.10 581.40 L 692.80 580.90 L 696.90 578.50 L 700.90 574.50 L 702.60 572.20 L 705.30 567.00 L 706.70 561.60 L 706.60 556.60 L 706.10 554.70 L 705.30 553.20 L 704.10 551.90 L 702.70 551.10 L 701.10 550.60 Z M 666.00 494.60 L 664.10 497.50 L 659.70 502.10 L 655.40 504.60 L 653.30 505.10 L 651.10 505.20 L 653.10 506.30 L 655.80 506.50 L 658.00 506.00 L 660.40 504.90 L 662.70 503.40 L 665.00 501.30 L 669.00 495.90 L 671.40 490.40 L 672.40 485.10 L 672.40 482.80 L 672.10 480.70 L 671.30 478.80 L 670.30 477.40 L 668.90 476.30 L 666.70 475.60 L 667.80 476.80 L 668.70 478.30 L 669.20 480.20 L 669.40 484.40 L 668.40 489.40 L 666.00 494.60 Z M 737.40 515.30 L 735.20 514.70 L 736.30 515.80 L 737.20 517.40 L 737.70 519.20 L 737.90 523.50 L 736.90 528.50 L 734.50 533.70 L 732.60 536.60 L 730.50 539.00 L 728.20 541.10 L 724.00 543.70 L 721.90 544.20 L 719.70 544.20 L 720.40 544.80 L 722.90 545.60 L 724.40 545.60 L 726.60 545.10 L 728.90 544.00 L 731.20 542.40 L 733.50 540.30 L 735.60 537.90 L 737.50 535.00 L 739.90 529.40 L 741.00 524.10 L 740.60 519.80 L 739.90 517.90 L 738.80 516.40 L 737.40 515.30 Z M 749.30 467.20 L 750.40 468.30 L 751.20 469.90 L 751.80 471.80 L 752.10 474.30 L 751.40 479.60 L 750.50 482.30 L 747.80 487.50 L 746.10 489.80 L 742.10 493.80 L 738.00 496.30 L 735.90 496.80 L 733.70 496.80 L 736.20 498.00 L 739.30 498.00 L 741.00 497.50 L 745.10 495.10 L 749.10 491.10 L 750.80 488.80 L 753.40 483.60 L 754.90 478.20 L 755.10 475.60 L 754.80 473.20 L 754.30 471.20 L 753.40 469.70 L 752.30 468.50 L 750.90 467.60 L 749.30 467.20 Z" fill="#ffd475" fill-rule="nonzero" group-id="1,6" node-id="244" stroke="none" target-height="148.9" target-width="118.099976" target-x="637" target-y="436.1"></path><path d="M 643.30 551.10 L 647.50 547.80 L 649.50 545.60 L 652.60 540.80 L 654.80 535.40 L 655.50 530.10 L 655.30 527.70 L 654.70 525.80 L 653.80 524.20 L 652.60 523.00 L 650.40 523.00 L 648.30 523.50 L 646.20 524.50 L 642.10 527.80 L 640.20 530.00 L 637.80 533.50 L 635.90 537.40 L 635.00 540.20 L 634.20 545.40 L 634.50 547.80 L 635.00 549.70 L 635.90 551.40 L 637.10 552.60 L 639.30 552.60 L 641.40 552.10 L 643.30 551.10 Z M 694.40 441.10 L 690.30 444.40 L 686.60 448.90 L 684.00 454.10 L 682.60 459.50 L 682.60 464.40 L 683.20 466.30 L 684.10 468.00 L 685.20 469.20 L 687.50 469.10 L 689.60 468.60 L 691.60 467.60 L 695.80 464.40 L 699.40 459.90 L 702.00 454.70 L 703.50 449.30 L 703.60 446.70 L 703.40 444.30 L 702.80 442.40 L 701.90 440.80 L 700.80 439.60 L 698.60 439.60 L 696.50 440.10 L 694.40 441.10 Z M 657.60 582.20 L 659.90 580.60 L 662.20 578.50 L 664.30 576.00 L 666.20 573.10 L 668.50 567.90 L 669.60 563.00 L 669.40 558.70 L 668.80 556.80 L 668.00 555.30 L 666.80 554.00 L 664.60 554.10 L 662.60 554.60 L 658.30 557.10 L 656.00 559.20 L 653.90 561.70 L 652.00 564.70 L 649.70 569.80 L 649.00 572.30 L 648.50 577.00 L 649.30 581.00 L 650.20 582.50 L 651.30 583.70 L 653.50 583.60 L 655.60 583.10 L 657.60 582.20 Z M 728.70 437.70 L 726.40 439.20 L 724.10 441.30 L 722.00 443.80 L 718.70 449.40 L 717.10 454.30 L 716.70 456.80 L 716.90 461.10 L 717.40 463.00 L 718.30 464.50 L 719.40 465.80 L 721.60 465.70 L 723.70 465.20 L 728.00 462.70 L 730.30 460.60 L 732.40 458.10 L 735.60 452.50 L 737.30 447.60 L 737.70 445.00 L 737.50 440.80 L 736.90 438.90 L 736.10 437.30 L 735.00 436.10 L 732.80 436.20 L 730.70 436.70 L 728.70 437.70 Z M 691.80 578.70 L 696.00 575.40 L 699.70 570.90 L 702.30 565.70 L 703.70 560.40 L 703.70 555.40 L 703.10 553.50 L 702.20 551.80 L 701.10 550.60 L 698.80 550.70 L 696.70 551.20 L 692.60 553.60 L 688.60 557.60 L 686.20 561.20 L 684.30 565.10 L 682.80 570.50 L 682.70 573.10 L 682.90 575.60 L 683.50 577.60 L 684.40 579.10 L 685.50 580.20 L 687.70 580.20 L 689.80 579.70 L 691.80 578.70 Z M 660.30 477.10 L 655.80 480.80 L 651.80 486.10 L 649.40 491.30 L 648.40 496.30 L 648.50 500.60 L 649.10 502.50 L 650.00 504.00 L 651.10 505.20 L 653.30 505.10 L 655.40 504.60 L 657.40 503.60 L 662.00 500.00 L 664.10 497.50 L 666.00 494.60 L 668.40 489.40 L 669.40 484.40 L 669.20 480.20 L 668.70 478.30 L 667.80 476.80 L 666.70 475.60 L 664.40 475.70 L 662.30 476.20 L 660.30 477.10 Z M 726.00 542.70 L 728.20 541.10 L 730.50 539.00 L 732.60 536.60 L 734.50 533.70 L 736.90 528.50 L 737.50 526.00 L 738.00 521.20 L 737.20 517.40 L 736.30 515.80 L 735.20 514.70 L 732.90 514.70 L 730.80 515.20 L 726.60 517.70 L 722.20 522.30 L 720.30 525.20 L 718.90 527.80 L 717.30 532.80 L 716.90 537.60 L 717.70 541.50 L 718.60 543.00 L 719.70 544.20 L 721.90 544.20 L 724.00 543.60 L 726.00 542.70 Z M 740.00 495.30 L 744.20 492.00 L 747.80 487.50 L 750.50 482.30 L 751.90 476.90 L 752.10 474.30 L 751.80 471.80 L 751.20 469.90 L 750.40 468.30 L 749.30 467.20 L 747.00 467.20 L 744.90 467.80 L 742.90 468.70 L 738.70 472.00 L 735.10 476.50 L 732.50 481.60 L 731.00 487.00 L 730.90 489.60 L 731.10 492.20 L 731.70 494.10 L 732.60 495.70 L 733.70 496.80 L 735.90 496.80 L 738.00 496.30 L 740.00 495.30 Z" fill="#f3a250" fill-rule="nonzero" group-id="1,7" node-id="249" stroke="none" target-height="147.6" target-width="117.89996" target-x="634.2" target-y="436.1"></path><path d="M 619.40 60.50 L 619.40 141.80 L 618.70 143.80 L 616.60 145.60 L 589.50 161.30 L 587.60 162.20 L 583.00 162.90 L 578.50 162.20 L 576.50 161.30 L 549.30 145.60 L 547.40 143.80 L 546.70 141.80 L 546.70 60.50 L 547.50 58.50 L 549.50 56.80 L 576.50 41.00 L 578.40 40.10 L 583.00 39.40 L 587.60 40.10 L 589.50 41.00 L 616.60 56.60 L 618.40 57.90 L 619.20 59.20 L 619.40 60.50 Z" fill="#9ea9c9" fill-rule="nonzero" group-id="1,8" node-id="254" stroke="none" target-height="123.49999" target-width="72.70001" target-x="546.7" target-y="39.4"></path><path d="M 619.40 60.40 L 619.30 141.80 L 619.10 143.10 L 618.20 144.30 L 616.60 145.60 L 589.50 161.30 L 587.40 162.20 L 583.10 162.90 L 578.70 162.20 L 576.60 161.30 L 549.40 145.60 L 547.80 144.40 L 547.00 143.10 L 546.70 141.80 L 546.80 60.40 L 547.50 62.40 L 549.50 64.20 L 576.70 79.90 L 578.60 80.70 L 583.20 81.40 L 587.70 80.70 L 589.60 79.90 L 616.70 64.20 L 618.70 62.40 L 619.40 60.40 Z" fill="#9ea9c9" fill-rule="nonzero" group-id="1,9" node-id="259" stroke="none" target-height="102.49999" target-width="72.70001" target-x="546.7" target-y="60.4"></path><path d="M 616.70 56.60 L 618.30 57.90 L 619.10 59.10 L 619.40 60.40 L 619.10 61.70 L 618.30 62.90 L 616.70 64.20 L 589.60 79.90 L 585.40 81.30 L 580.90 81.30 L 576.70 79.90 L 549.50 64.20 L 547.90 62.90 L 547.00 61.70 L 546.80 60.40 L 547.00 59.10 L 547.90 57.90 L 549.40 56.70 L 576.50 40.90 L 580.80 39.50 L 585.20 39.50 L 589.50 40.90 L 616.70 56.60 Z" fill="#c9cee2" fill-rule="nonzero" group-id="1,10" node-id="264" stroke="none" target-height="41.800003" target-width="72.60004" target-x="546.8" target-y="39.5"></path><path d="M 562.20 92.10 L 560.10 91.10 L 556.50 90.10 L 554.70 90.10 L 551.80 91.10 L 300.40 236.50 L 303.30 235.60 L 305.10 235.60 L 308.70 236.50 L 310.80 237.60 L 313.40 239.30 L 315.90 241.50 L 320.30 247.00 L 323.50 253.30 L 324.60 256.70 L 325.20 259.90 L 325.50 263.00 L 325.30 265.30 L 324.30 268.90 L 323.40 270.40 L 321.10 272.50 L 573.70 126.10 L 574.80 124.90 L 576.30 121.80 L 576.80 117.60 L 576.60 114.40 L 576.00 111.20 L 574.90 107.80 L 573.40 104.60 L 569.60 98.70 L 567.30 96.10 L 564.80 93.90 L 562.20 92.10 Z" fill="#d4daea" fill-rule="nonzero" group-id="1,11" node-id="269" stroke="none" target-height="182.4" target-width="276.4" target-x="300.4" target-y="90.1"></path><path d="M 310.80 237.60 L 313.40 239.30 L 315.90 241.50 L 320.30 247.00 L 323.50 253.30 L 324.60 256.70 L 325.20 259.90 L 325.50 263.00 L 325.20 266.10 L 324.50 268.50 L 323.40 270.40 L 322.00 271.90 L 320.20 272.90 L 318.10 273.40 L 316.00 273.40 L 313.50 272.80 L 310.70 271.50 L 308.10 269.70 L 305.60 267.50 L 301.20 262.00 L 298.00 255.70 L 296.90 252.40 L 296.30 249.20 L 296.10 246.10 L 296.40 243.00 L 297.00 240.60 L 298.10 238.70 L 299.60 237.10 L 301.30 236.10 L 303.40 235.60 L 305.50 235.60 L 308.00 236.20 L 310.80 237.60 Z" fill="#c9cee2" fill-rule="nonzero" group-id="1,12" node-id="274" stroke="none" target-height="37.799988" target-width="29.399994" target-x="296.1" target-y="235.6"></path><path d="M 602.10 91.50 L 604.20 90.50 L 607.80 89.50 L 609.60 89.50 L 612.50 90.50 L 823.90 213.40 L 821.00 212.40 L 819.20 212.40 L 815.60 213.30 L 813.50 214.40 L 810.90 216.20 L 808.40 218.30 L 804.10 223.80 L 800.80 230.10 L 799.70 233.50 L 799.10 236.70 L 798.90 239.80 L 799.00 242.10 L 800.00 245.70 L 800.90 247.20 L 803.20 249.30 L 590.50 125.50 L 589.50 124.30 L 588.00 121.20 L 587.40 117.00 L 587.70 113.80 L 588.30 110.60 L 589.40 107.20 L 590.90 104.00 L 594.70 98.10 L 597.00 95.50 L 599.50 93.30 L 602.10 91.50 Z" fill="#d4daea" fill-rule="nonzero" group-id="1,13" node-id="279" stroke="none" target-height="159.8" target-width="236.5" target-x="587.4" target-y="89.5"></path><path d="M 813.50 214.40 L 810.90 216.20 L 808.40 218.30 L 804.10 223.80 L 800.80 230.10 L 799.70 233.50 L 799.10 236.70 L 798.90 239.80 L 799.10 242.90 L 799.80 245.30 L 800.90 247.20 L 802.40 248.70 L 804.10 249.70 L 806.20 250.20 L 808.30 250.20 L 810.80 249.60 L 813.60 248.30 L 816.20 246.50 L 818.70 244.30 L 823.10 238.80 L 826.30 232.50 L 827.40 229.20 L 828.00 226.00 L 828.30 222.90 L 828.00 219.80 L 827.30 217.40 L 826.20 215.50 L 824.80 213.90 L 823.00 212.90 L 821.00 212.40 L 818.80 212.50 L 816.30 213.10 L 813.50 214.40 Z" fill="#c9cee2" fill-rule="nonzero" group-id="1,14" node-id="284" stroke="none" target-height="37.800003" target-width="29.399963" target-x="798.9" target-y="212.4"></path><path d="M 285.60 938.60 L 289.40 937.00 L 285.60 938.80 L 282.50 940.90 L 285.60 938.60 Z" fill="#262e3f" fill-rule="nonzero" group-id="1,15" node-id="289" stroke="none" target-height="3.9000244" target-width="6.899994" target-x="282.5" target-y="937"></path><path d="M 296.30 937.40 L 288.10 932.80 L 284.60 932.50 L 280.80 933.50 L 278.50 934.60 L 275.80 936.40 L 273.20 938.70 L 270.80 941.40 L 266.80 947.60 L 265.30 951.00 L 264.10 954.50 L 263.40 957.90 L 263.20 961.20 L 263.80 965.70 L 265.30 968.90 L 267.70 971.10 L 276.20 975.90 L 279.70 976.30 L 283.60 975.30 L 285.80 974.20 L 288.50 972.40 L 291.10 970.10 L 293.60 967.30 L 297.50 961.10 L 299.10 957.70 L 300.20 954.10 L 300.90 950.70 L 301.20 947.40 L 300.60 942.80 L 298.90 939.40 L 297.70 938.30 L 296.30 937.40 Z M 285.60 938.80 L 282.50 940.90 L 285.60 938.60 L 289.40 937.00 L 285.60 938.80 Z" fill="#262e3f" fill-rule="nonzero" group-id="1,16,101" node-id="296" stroke="none" target-height="43.799988" target-width="38" target-x="263.2" target-y="932.5"></path><path d="M 285.60 938.60 L 289.40 937.00 L 285.60 938.80 L 282.50 940.90 L 285.60 938.60 Z" fill="#262e3f" fill-rule="nonzero" group-id="1,16,102" node-id="301" stroke="none" target-height="3.9000244" target-width="6.899994" target-x="282.5" target-y="937"></path><path d="M 296.70 937.60 L 293.60 936.60 L 291.70 936.60 L 287.90 937.60 L 282.90 940.50 L 280.30 942.80 L 277.90 945.60 L 273.90 951.80 L 272.30 955.20 L 271.20 958.70 L 270.50 962.10 L 270.20 965.40 L 270.80 969.90 L 272.40 973.10 L 274.80 975.30 L 267.60 971.20 L 265.30 969.00 L 263.80 965.70 L 263.20 961.30 L 263.40 958.00 L 264.10 954.60 L 265.20 951.00 L 266.80 947.60 L 270.80 941.40 L 273.20 938.70 L 275.80 936.40 L 278.50 934.60 L 280.70 933.40 L 284.60 932.40 L 288.10 932.80 L 296.70 937.60 Z" fill="#4c5c75" fill-rule="nonzero" group-id="1,17" node-id="307" stroke="none" target-height="42.899963" target-width="33.5" target-x="263.2" target-y="932.4"></path><path d="M 285.60 938.70 L 288.60 937.30 L 291.20 936.60 L 293.50 936.60 L 295.70 937.10 L 297.50 938.10 L 299.10 939.70 L 300.20 941.70 L 300.90 944.30 L 301.20 947.50 L 301.00 950.80 L 300.30 954.20 L 297.60 961.10 L 293.60 967.30 L 291.10 970.10 L 288.50 972.40 L 285.80 974.20 L 282.80 975.60 L 280.20 976.30 L 278.00 976.30 L 275.80 975.80 L 273.90 974.80 L 272.40 973.10 L 271.30 971.20 L 270.50 968.60 L 270.20 965.40 L 270.50 962.10 L 271.20 958.70 L 272.30 955.20 L 275.70 948.60 L 280.30 942.80 L 282.90 940.50 L 285.60 938.70 Z" fill="#262e3f" fill-rule="nonzero" group-id="1,18" node-id="312" stroke="none" target-height="39.700012" target-width="31" target-x="270.2" target-y="936.6"></path><path d="M 285.70 945.20 L 289.20 943.90 L 292.00 944.20 L 293.20 944.80 L 294.90 947.10 L 295.50 950.80 L 295.20 953.90 L 294.20 957.20 L 292.70 960.40 L 290.70 963.30 L 288.30 965.80 L 285.70 967.70 L 282.20 969.00 L 279.40 968.70 L 278.30 968.00 L 276.60 965.80 L 275.90 962.10 L 276.30 959.00 L 277.30 955.60 L 278.80 952.50 L 280.80 949.60 L 283.10 947.00 L 285.70 945.20 Z" fill="#f3f1fc" fill-rule="nonzero" group-id="1,19" node-id="317" stroke="none" target-height="25.099976" target-width="19.600006" target-x="275.9" target-y="943.9"></path><path d="M 285.70 951.80 L 287.80 951.20 L 289.20 952.00 L 289.60 952.80 L 289.80 954.10 L 289.50 956.10 L 288.60 958.10 L 287.30 959.80 L 285.70 961.10 L 283.60 961.60 L 282.30 960.90 L 281.80 960.00 L 281.70 958.80 L 282.00 956.80 L 282.80 954.80 L 284.20 953.00 L 285.70 951.80 Z" fill="#4c5c75" fill-rule="nonzero" group-id="1,20" node-id="322" stroke="none" target-height="10.399963" target-width="8.099976" target-x="281.7" target-y="951.2"></path><path d="M 297.60 911.60 L 297.60 967.90 L 286.20 974.60 L 282.30 972.40 L 282.30 916.10 L 286.00 918.30 L 297.60 911.60 Z" fill="#b0b8cf" fill-rule="nonzero" group-id="1,21" node-id="327" stroke="none" target-height="63" target-width="15.300018" target-x="282.3" target-y="911.6"></path><path d="M 282.20 916.10 L 282.30 972.50 L 286.10 974.60 L 286.00 918.30 L 282.20 916.10 Z" fill="#dedffb" fill-rule="nonzero" group-id="1,22" node-id="332" stroke="none" target-height="58.5" target-width="3.899994" target-x="282.2" target-y="916.1"></path><path d="M 286.00 918.30 L 286.10 974.70 L 297.70 968.00 L 297.60 911.60 L 286.00 918.30 Z" fill="#b0b8cf" fill-rule="nonzero" group-id="1,23" node-id="337" stroke="none" target-height="63.100037" target-width="11.700012" target-x="286" target-y="911.6"></path><path d="M 282.20 916.10 L 286.00 918.30 L 297.60 911.60 L 293.80 909.40 L 282.20 916.10 Z" fill="#262e3f" fill-rule="nonzero" group-id="1,24" node-id="342" stroke="none" target-height="8.899963" target-width="15.399994" target-x="282.2" target-y="909.4"></path><path d="M 302.90 918.30 L 302.40 925.70 L 301.70 927.10 L 300.60 928.30 L 298.90 929.60 L 296.10 930.80 L 292.90 931.50 L 289.50 931.80 L 286.10 931.50 L 282.90 930.80 L 280.10 929.60 L 278.40 928.30 L 277.30 927.00 L 276.50 925.60 L 276.30 924.10 L 276.50 918.30 L 276.70 919.70 L 277.40 921.10 L 278.60 922.40 L 280.30 923.70 L 283.10 924.90 L 286.30 925.60 L 289.70 925.90 L 293.10 925.60 L 296.30 924.90 L 299.10 923.70 L 300.80 922.40 L 301.90 921.20 L 302.60 919.70 L 302.90 918.30 Z" fill="#4c5c75" fill-rule="nonzero" group-id="1,25" node-id="347" stroke="none" target-height="13.5" target-width="26.600006" target-x="276.3" target-y="918.3"></path><path d="M 298.90 912.80 L 300.50 914.00 L 302.40 916.30 L 302.80 918.90 L 301.80 921.40 L 299.10 923.70 L 296.30 924.90 L 293.10 925.60 L 289.70 925.90 L 286.30 925.60 L 283.10 924.90 L 280.30 923.70 L 278.70 922.50 L 277.60 921.40 L 276.50 918.90 L 276.50 917.60 L 277.60 915.10 L 280.30 912.80 L 283.10 911.60 L 286.30 910.90 L 289.60 910.60 L 293.00 910.90 L 296.20 911.60 L 298.90 912.80 Z" fill="#4c5c75" fill-rule="nonzero" group-id="1,26" node-id="352" stroke="none" target-height="15.300049" target-width="26.299988" target-x="276.5" target-y="910.6"></path><path d="M 315.70 955.70 L 315.50 959.00 L 314.80 962.40 L 313.60 965.90 L 310.30 972.50 L 305.60 978.30 L 303.00 980.60 L 297.90 983.60 L 294.10 984.60 L 292.20 984.60 L 289.20 983.50 L 280.80 978.40 L 278.90 975.70 L 277.90 971.90 L 277.90 966.20 L 278.60 962.80 L 279.70 959.30 L 283.00 952.70 L 287.60 946.90 L 290.20 944.60 L 292.90 942.70 L 295.10 941.70 L 299.00 940.70 L 302.60 941.10 L 304.10 941.70 L 312.20 946.50 L 313.30 947.70 L 315.00 951.00 L 315.70 955.70 Z" fill="#262e3f" fill-rule="nonzero" group-id="1,27" node-id="357" stroke="none" target-height="43.899963" target-width="37.80002" target-x="277.9" target-y="940.7"></path><path d="M 311.10 945.80 L 308.00 944.80 L 306.20 944.80 L 302.40 945.80 L 297.40 948.80 L 294.80 951.10 L 292.30 953.80 L 288.30 960.00 L 286.80 963.40 L 285.60 966.90 L 285.00 970.30 L 284.70 973.70 L 285.30 978.10 L 286.80 981.40 L 289.20 983.50 L 282.10 979.40 L 279.80 977.20 L 278.20 974.00 L 277.60 969.50 L 277.90 966.20 L 278.50 962.80 L 279.70 959.30 L 281.20 955.90 L 285.20 949.70 L 287.70 946.90 L 290.30 944.60 L 293.00 942.80 L 295.20 941.70 L 299.10 940.70 L 302.60 941.00 L 311.10 945.80 Z" fill="#4c5c75" fill-rule="nonzero" group-id="1,28" node-id="362" stroke="none" target-height="42.799988" target-width="33.5" target-x="277.6" target-y="940.7"></path><path d="M 300.10 946.90 L 303.10 945.50 L 305.70 944.90 L 308.00 944.80 L 310.10 945.30 L 312.00 946.40 L 313.50 948.00 L 314.60 950.00 L 315.40 952.50 L 315.70 955.70 L 315.40 959.00 L 314.70 962.40 L 312.00 969.30 L 308.00 975.50 L 305.60 978.30 L 303.00 980.60 L 300.20 982.50 L 297.30 983.80 L 294.70 984.50 L 292.40 984.60 L 290.20 984.00 L 288.40 983.00 L 286.90 981.40 L 285.70 979.40 L 285.00 976.90 L 284.70 973.60 L 284.90 970.30 L 285.60 966.90 L 288.30 960.00 L 292.30 953.80 L 294.80 951.00 L 297.40 948.70 L 300.10 946.90 Z" fill="#262e3f" fill-rule="nonzero" group-id="1,29" node-id="367" stroke="none" target-height="39.799988" target-width="31" target-x="284.7" target-y="944.8"></path><path d="M 300.10 952.20 L 304.00 950.80 L 305.60 950.80 L 307.20 951.10 L 308.40 951.90 L 309.50 953.00 L 310.30 954.40 L 311.00 958.40 L 310.40 963.10 L 309.60 965.60 L 307.90 969.10 L 305.70 972.30 L 302.10 975.80 L 298.10 978.10 L 296.30 978.60 L 294.70 978.60 L 293.20 978.20 L 291.90 977.50 L 290.80 976.40 L 290.10 975.00 L 289.30 971.00 L 290.00 966.30 L 290.80 963.80 L 292.50 960.30 L 294.70 957.10 L 296.40 955.10 L 300.10 952.20 Z" fill="#f3f1fc" fill-rule="nonzero" group-id="1,30" node-id="372" stroke="none" target-height="27.799988" target-width="21.700012" target-x="289.3" target-y="950.8"></path><path d="M 300.20 960.00 L 301.30 959.50 L 303.10 959.70 L 304.10 961.10 L 304.30 962.30 L 304.00 964.30 L 303.10 966.30 L 301.80 968.10 L 300.20 969.40 L 299.00 969.80 L 297.30 969.60 L 296.30 968.30 L 296.10 967.00 L 296.40 965.10 L 297.30 963.00 L 298.60 961.30 L 300.20 960.00 Z" fill="#4c5c75" fill-rule="nonzero" group-id="1,31" node-id="377" stroke="none" target-height="10.299988" target-width="8.199982" target-x="296.1" target-y="959.5"></path><path d="M 197.60 887.60 L 197.30 890.90 L 196.60 894.30 L 195.40 897.70 L 192.00 904.30 L 187.40 910.00 L 184.80 912.30 L 182.00 914.20 L 179.20 915.50 L 176.70 916.20 L 174.40 916.30 L 172.20 915.80 L 170.40 914.90 L 168.80 913.40 L 169.80 914.60 L 163.90 911.20 L 161.60 909.00 L 160.60 907.50 L 159.50 903.70 L 159.60 898.00 L 160.30 894.50 L 161.50 891.00 L 164.90 884.40 L 169.50 878.60 L 172.00 876.40 L 177.00 873.40 L 180.90 872.40 L 184.40 872.80 L 186.00 873.40 L 193.70 878.20 L 195.00 879.40 L 196.80 882.80 L 197.60 887.60 Z" fill="#262e3f" fill-rule="nonzero" group-id="1,32" node-id="382" stroke="none" target-height="43.899963" target-width="38.100006" target-x="159.5" target-y="872.4"></path><path d="M 192.90 877.60 L 189.90 876.60 L 188.00 876.60 L 184.20 877.60 L 179.20 880.50 L 176.60 882.80 L 174.20 885.60 L 170.20 891.80 L 168.60 895.20 L 167.50 898.70 L 166.80 902.10 L 166.50 905.40 L 167.10 909.80 L 168.70 913.10 L 171.10 915.30 L 163.90 911.10 L 161.60 909.00 L 160.00 905.70 L 159.50 901.30 L 159.70 897.90 L 160.40 894.50 L 161.50 891.00 L 163.00 887.60 L 167.00 881.40 L 169.50 878.70 L 172.10 876.40 L 174.80 874.50 L 177.00 873.40 L 180.90 872.40 L 184.40 872.80 L 192.90 877.60 Z" fill="#4c5c75" fill-rule="nonzero" group-id="1,33" node-id="387" stroke="none" target-height="42.899963" target-width="33.399994" target-x="159.5" target-y="872.4"></path><path d="M 182.00 878.60 L 184.90 877.30 L 187.50 876.60 L 189.80 876.60 L 192.00 877.10 L 193.80 878.10 L 195.40 879.70 L 196.50 881.70 L 197.20 884.30 L 197.50 887.50 L 197.30 890.80 L 196.60 894.20 L 193.90 901.10 L 189.90 907.30 L 187.40 910.00 L 184.80 912.30 L 182.00 914.20 L 179.10 915.60 L 176.50 916.20 L 174.30 916.30 L 172.10 915.80 L 170.20 914.70 L 168.70 913.10 L 167.60 911.20 L 166.80 908.60 L 166.50 905.40 L 166.80 902.10 L 167.50 898.70 L 170.20 891.80 L 174.20 885.60 L 176.60 882.80 L 179.20 880.50 L 182.00 878.60 Z" fill="#262e3f" fill-rule="nonzero" group-id="1,34" node-id="392" stroke="none" target-height="39.700012" target-width="31" target-x="166.5" target-y="876.6"></path><path d="M 182.00 885.20 L 185.50 883.90 L 188.30 884.20 L 189.50 884.80 L 191.20 887.10 L 191.60 888.70 L 191.80 890.80 L 191.50 893.90 L 190.50 897.20 L 189.00 900.40 L 187.00 903.30 L 184.60 905.80 L 182.00 907.70 L 180.20 908.60 L 177.10 909.00 L 174.50 908.00 L 172.90 905.80 L 172.20 902.10 L 172.50 898.90 L 173.50 895.60 L 175.10 892.50 L 177.00 889.50 L 179.40 887.00 L 182.00 885.20 Z" fill="#f3f1fc" fill-rule="nonzero" group-id="1,35" node-id="397" stroke="none" target-height="25.099976" target-width="19.600006" target-x="172.2" target-y="883.9"></path><path d="M 182.00 891.80 L 183.20 891.30 L 184.90 891.50 L 185.90 892.80 L 186.10 894.10 L 185.80 896.00 L 184.90 898.10 L 183.60 899.80 L 182.00 901.10 L 180.90 901.60 L 179.20 901.40 L 178.10 900.00 L 178.00 898.80 L 178.30 896.80 L 179.10 894.80 L 180.50 893.00 L 182.00 891.80 Z" fill="#4c5c75" fill-rule="nonzero" group-id="1,36" node-id="402" stroke="none" target-height="10.299988" target-width="8.100006" target-x="178" target-y="891.3"></path><path d="M 178.50 856.10 L 178.60 912.50 L 182.40 914.60 L 182.30 858.20 L 178.50 856.10 Z" fill="#dedffb" fill-rule="nonzero" group-id="1,37" node-id="407" stroke="none" target-height="58.5" target-width="3.899994" target-x="178.5" target-y="856.1"></path><path d="M 182.30 858.20 L 182.40 914.60 L 194.00 908.00 L 193.90 851.60 L 182.30 858.20 Z" fill="#b0b8cf" fill-rule="nonzero" group-id="1,38" node-id="412" stroke="none" target-height="63" target-width="11.699997" target-x="182.3" target-y="851.6"></path><path d="M 178.50 856.10 L 182.20 858.20 L 193.90 851.50 L 190.10 849.40 L 178.50 856.10 Z" fill="#262e3f" fill-rule="nonzero" group-id="1,39" node-id="417" stroke="none" target-height="8.799988" target-width="15.399994" target-x="178.5" target-y="849.4"></path><path d="M 199.10 858.30 L 198.70 865.60 L 198.00 867.10 L 196.90 868.30 L 195.20 869.50 L 192.40 870.80 L 189.20 871.50 L 185.80 871.80 L 182.40 871.50 L 179.20 870.80 L 176.40 869.50 L 174.70 868.30 L 173.50 867.00 L 172.80 865.60 L 172.60 864.10 L 172.80 858.20 L 173.00 859.70 L 173.70 861.10 L 174.90 862.40 L 176.60 863.60 L 179.40 864.90 L 182.60 865.60 L 186.00 865.90 L 189.40 865.60 L 192.60 864.90 L 195.40 863.60 L 197.10 862.40 L 198.20 861.20 L 198.90 859.70 L 199.10 858.30 Z" fill="#4c5c75" fill-rule="nonzero" group-id="1,40" node-id="422" stroke="none" target-height="13.599976" target-width="26.5" target-x="172.6" target-y="858.2"></path><path d="M 195.20 852.80 L 198.00 855.10 L 199.10 857.60 L 199.10 858.90 L 198.10 861.40 L 195.40 863.70 L 192.60 864.90 L 189.40 865.60 L 186.00 865.90 L 182.60 865.60 L 179.40 864.90 L 176.60 863.70 L 173.90 861.40 L 172.80 858.90 L 172.80 857.60 L 173.90 855.10 L 176.60 852.80 L 179.40 851.60 L 182.60 850.90 L 185.90 850.60 L 189.30 850.90 L 192.50 851.60 L 195.20 852.80 Z" fill="#4c5c75" fill-rule="nonzero" group-id="1,41" node-id="427" stroke="none" target-height="15.300049" target-width="26.300003" target-x="172.8" target-y="850.6"></path><path d="M 212.00 895.80 L 211.70 899.10 L 211.00 902.50 L 209.90 906.00 L 206.50 912.50 L 201.80 918.30 L 199.20 920.60 L 196.40 922.40 L 193.60 923.80 L 191.10 924.40 L 188.90 924.50 L 186.80 924.10 L 185.00 923.20 L 183.40 921.60 L 185.60 923.60 L 178.30 919.50 L 176.10 917.20 L 175.20 915.60 L 174.10 911.90 L 174.20 906.10 L 174.80 902.70 L 176.00 899.20 L 177.50 895.80 L 181.50 889.70 L 184.00 886.90 L 186.60 884.70 L 191.60 881.70 L 195.40 880.70 L 198.90 881.00 L 208.30 886.50 L 209.50 887.70 L 211.30 891.10 L 212.00 895.80 Z" fill="#262e3f" fill-rule="nonzero" group-id="1,42" node-id="432" stroke="none" target-height="43.799988" target-width="37.899994" target-x="174.1" target-y="880.7"></path><path d="M 207.40 885.80 L 204.30 884.80 L 202.50 884.80 L 198.70 885.80 L 193.70 888.80 L 191.10 891.00 L 188.60 893.80 L 184.60 900.00 L 183.10 903.40 L 181.90 906.90 L 181.20 910.30 L 181.00 913.60 L 181.60 918.10 L 183.10 921.40 L 185.50 923.50 L 178.40 919.40 L 176.00 917.20 L 174.50 914.00 L 173.90 909.50 L 174.20 906.20 L 174.80 902.80 L 176.00 899.30 L 177.50 895.90 L 181.50 889.70 L 184.00 886.90 L 186.50 884.60 L 189.30 882.80 L 191.50 881.70 L 195.40 880.70 L 198.90 881.00 L 207.40 885.80 Z" fill="#4c5c75" fill-rule="nonzero" group-id="1,43" node-id="437" stroke="none" target-height="42.799988" target-width="33.5" target-x="173.9" target-y="880.7"></path><path d="M 196.40 886.90 L 199.40 885.50 L 202.00 884.90 L 204.20 884.80 L 206.40 885.30 L 208.30 886.40 L 209.80 888.00 L 210.90 890.00 L 211.70 892.50 L 212.00 895.70 L 211.70 899.00 L 211.00 902.40 L 208.40 909.30 L 204.30 915.50 L 201.90 918.30 L 199.30 920.60 L 196.50 922.50 L 193.60 923.80 L 191.00 924.50 L 188.70 924.60 L 186.50 924.00 L 184.70 923.00 L 183.10 921.40 L 182.00 919.40 L 181.30 916.90 L 181.00 913.60 L 181.20 910.30 L 181.90 906.90 L 184.60 900.00 L 188.60 893.80 L 191.10 891.00 L 193.70 888.70 L 196.40 886.90 Z" fill="#262e3f" fill-rule="nonzero" group-id="1,44" node-id="442" stroke="none" target-height="39.799988" target-width="31" target-x="181" target-y="884.8"></path><path d="M 196.40 892.20 L 200.30 890.80 L 201.90 890.80 L 203.50 891.10 L 204.70 891.80 L 205.80 893.00 L 206.60 894.40 L 207.30 898.40 L 206.70 903.10 L 205.90 905.60 L 204.20 909.10 L 202.00 912.30 L 200.30 914.20 L 196.50 917.10 L 192.60 918.60 L 189.50 918.20 L 188.20 917.50 L 187.10 916.40 L 186.40 915.00 L 185.60 910.90 L 186.30 906.30 L 187.10 903.80 L 188.80 900.30 L 191.00 897.10 L 192.70 895.10 L 196.40 892.20 Z" fill="#f3f1fc" fill-rule="nonzero" group-id="1,45" node-id="447" stroke="none" target-height="27.799988" target-width="21.699997" target-x="185.6" target-y="890.8"></path><path d="M 196.50 900.00 L 198.60 899.50 L 200.00 900.30 L 200.40 901.10 L 200.50 902.30 L 200.20 904.30 L 199.40 906.30 L 198.00 908.10 L 196.50 909.30 L 194.40 909.90 L 193.00 909.10 L 192.60 908.30 L 192.40 907.00 L 192.70 905.10 L 193.60 903.00 L 194.90 901.30 L 196.50 900.00 Z" fill="#4c5c75" fill-rule="nonzero" group-id="1,46" node-id="452" stroke="none" target-height="10.400024" target-width="8.100006" target-x="192.4" target-y="899.5"></path><path d="M 464.20 852.90 L 464.00 856.20 L 463.40 859.60 L 462.20 863.10 L 458.80 869.70 L 454.20 875.50 L 451.60 877.80 L 446.60 880.80 L 442.80 881.80 L 440.90 881.80 L 437.80 880.70 L 429.50 875.60 L 427.50 872.80 L 426.40 869.10 L 426.50 863.40 L 427.20 860.00 L 428.30 856.50 L 431.70 849.90 L 436.30 844.10 L 438.90 841.80 L 443.80 838.80 L 447.70 837.80 L 451.20 838.20 L 460.50 843.50 L 461.80 844.70 L 463.60 848.10 L 464.20 852.90 Z" fill="#262e3f" fill-rule="nonzero" group-id="1,47" node-id="457" stroke="none" target-height="44" target-width="37.80002" target-x="426.4" target-y="837.8"></path><path d="M 459.80 843.00 L 456.70 842.00 L 454.80 842.00 L 451.00 843.00 L 446.00 845.90 L 443.40 848.20 L 441.00 851.00 L 437.00 857.20 L 435.40 860.60 L 434.30 864.10 L 433.60 867.50 L 433.30 870.80 L 433.90 875.30 L 435.50 878.50 L 437.90 880.70 L 430.70 876.60 L 428.40 874.40 L 426.80 871.10 L 426.30 866.70 L 426.50 863.40 L 427.20 860.00 L 428.30 856.40 L 429.90 853.10 L 433.90 846.80 L 436.30 844.10 L 438.90 841.80 L 441.60 840.00 L 443.90 838.80 L 447.70 837.90 L 451.20 838.20 L 459.80 843.00 Z" fill="#4c5c75" fill-rule="nonzero" group-id="1,48" node-id="462" stroke="none" target-height="42.799988" target-width="33.5" target-x="426.3" target-y="837.9"></path><path d="M 448.70 844.10 L 451.70 842.70 L 454.30 842.00 L 456.60 842.00 L 458.80 842.50 L 460.60 843.50 L 462.20 845.10 L 463.30 847.10 L 464.00 849.70 L 464.30 852.90 L 464.10 856.20 L 463.40 859.60 L 460.70 866.50 L 456.70 872.70 L 454.20 875.50 L 451.60 877.80 L 448.80 879.60 L 445.90 881.00 L 443.30 881.70 L 441.10 881.70 L 438.90 881.20 L 437.00 880.20 L 435.50 878.60 L 434.40 876.60 L 433.60 874.10 L 433.30 870.80 L 433.60 867.50 L 434.30 864.10 L 437.00 857.20 L 441.00 851.00 L 443.40 848.20 L 446.00 845.90 L 448.70 844.10 Z" fill="#262e3f" fill-rule="nonzero" group-id="1,49" node-id="467" stroke="none" target-height="39.700012" target-width="31" target-x="433.3" target-y="842"></path><path d="M 448.80 850.60 L 450.70 849.70 L 453.70 849.30 L 455.10 849.60 L 456.30 850.20 L 458.00 852.50 L 458.60 856.20 L 458.30 859.40 L 457.30 862.70 L 455.80 865.80 L 453.80 868.70 L 451.40 871.20 L 448.80 873.10 L 445.40 874.40 L 442.50 874.10 L 440.40 872.40 L 439.20 869.60 L 439.00 867.50 L 439.40 864.40 L 440.40 861.00 L 441.90 857.90 L 443.90 855.00 L 446.20 852.50 L 448.80 850.60 Z" fill="#f3f1fc" fill-rule="nonzero" group-id="1,50" node-id="472" stroke="none" target-height="25.100037" target-width="19.600006" target-x="439" target-y="849.3"></path><path d="M 448.80 857.20 L 450.90 856.60 L 452.30 857.40 L 452.70 858.30 L 452.90 859.50 L 452.60 861.50 L 451.70 863.50 L 450.40 865.30 L 448.80 866.50 L 446.70 867.10 L 445.40 866.30 L 444.90 865.40 L 444.80 864.20 L 445.10 862.20 L 446.00 860.20 L 447.30 858.40 L 448.80 857.20 Z" fill="#4c5c75" fill-rule="nonzero" group-id="1,51" node-id="477" stroke="none" target-height="10.5" target-width="8.100006" target-x="444.8" target-y="856.6"></path><path d="M 460.90 873.40 L 449.30 880.10 L 445.50 877.90 L 445.30 821.40 L 449.10 823.60 L 460.70 816.90 L 460.90 873.40 Z" fill="#b0b8cf" fill-rule="nonzero" group-id="1,52" node-id="482" stroke="none" target-height="63.19995" target-width="15.600006" target-x="445.3" target-y="816.9"></path><path d="M 445.30 821.50 L 445.50 877.90 L 449.20 880.00 L 449.10 823.70 L 445.30 821.50 Z" fill="#dedffb" fill-rule="nonzero" group-id="1,53" node-id="487" stroke="none" target-height="58.5" target-width="3.9000244" target-x="445.3" target-y="821.5"></path><path d="M 449.10 823.70 L 449.20 880.00 L 460.80 873.40 L 460.70 817.00 L 449.10 823.70 Z" fill="#b0b8cf" fill-rule="nonzero" group-id="1,54" node-id="492" stroke="none" target-height="63" target-width="11.699982" target-x="449.1" target-y="817"></path><path d="M 445.30 821.50 L 449.00 823.70 L 460.70 817.00 L 456.90 814.80 L 445.30 821.50 Z" fill="#262e3f" fill-rule="nonzero" group-id="1,55" node-id="497" stroke="none" target-height="8.900024" target-width="15.400024" target-x="445.3" target-y="814.8"></path><path d="M 466.00 823.70 L 465.80 829.60 L 465.50 831.10 L 464.80 832.50 L 463.70 833.70 L 462.00 835.00 L 459.20 836.20 L 456.00 836.90 L 452.60 837.20 L 449.30 836.90 L 446.00 836.20 L 443.30 835.00 L 441.50 833.70 L 440.40 832.40 L 439.60 831.00 L 439.40 829.60 L 439.60 823.70 L 439.80 825.10 L 440.50 826.50 L 441.70 827.80 L 443.40 829.10 L 446.20 830.30 L 449.40 831.00 L 452.80 831.30 L 456.20 831.00 L 459.40 830.30 L 462.20 829.10 L 463.90 827.80 L 465.00 826.60 L 465.70 825.20 L 466.00 823.70 Z" fill="#4c5c75" fill-rule="nonzero" group-id="1,56" node-id="502" stroke="none" target-height="13.5" target-width="26.600006" target-x="439.4" target-y="823.7"></path><path d="M 462.00 818.30 L 464.80 820.50 L 465.90 823.00 L 465.90 824.30 L 464.90 826.80 L 462.20 829.10 L 459.40 830.30 L 456.20 831.10 L 452.80 831.30 L 449.40 831.10 L 446.20 830.30 L 443.40 829.10 L 440.70 826.80 L 439.60 824.30 L 439.60 823.00 L 440.70 820.50 L 443.40 818.30 L 446.20 817.00 L 449.40 816.30 L 452.70 816.00 L 456.10 816.30 L 459.30 817.00 L 462.00 818.30 Z" fill="#4c5c75" fill-rule="nonzero" group-id="1,57" node-id="507" stroke="none" target-height="15.299988" target-width="26.299988" target-x="439.6" target-y="816"></path><path d="M 478.80 861.20 L 478.60 864.50 L 477.90 867.90 L 476.70 871.40 L 473.30 877.90 L 468.70 883.70 L 466.00 886.00 L 463.20 888.00 L 460.50 889.20 L 458.10 889.80 L 455.90 890.00 L 453.80 889.60 L 452.00 888.70 L 450.40 887.40 L 452.40 889.00 L 445.10 884.80 L 442.80 882.70 L 441.90 881.10 L 440.90 877.30 L 441.00 871.70 L 441.60 868.30 L 444.30 861.40 L 448.40 855.10 L 450.80 852.40 L 453.40 850.10 L 458.40 847.10 L 462.30 846.00 L 465.70 846.40 L 475.10 851.80 L 476.40 853.00 L 478.10 856.50 L 478.80 861.20 Z" fill="#262e3f" fill-rule="nonzero" group-id="1,58" node-id="512" stroke="none" target-height="44" target-width="37.899994" target-x="440.9" target-y="846"></path><path d="M 474.20 851.20 L 471.10 850.30 L 469.30 850.20 L 465.50 851.20 L 460.50 854.20 L 457.90 856.50 L 455.40 859.20 L 451.40 865.40 L 449.90 868.80 L 448.70 872.30 L 448.00 875.70 L 447.80 879.10 L 448.40 883.50 L 449.90 886.80 L 452.30 889.00 L 445.20 884.80 L 442.90 882.70 L 441.30 879.40 L 440.80 874.90 L 441.00 871.60 L 441.60 868.20 L 442.80 864.70 L 444.30 861.30 L 448.30 855.10 L 450.80 852.30 L 453.40 850.00 L 456.10 848.20 L 458.30 847.10 L 462.20 846.10 L 465.70 846.50 L 474.20 851.20 Z" fill="#4c5c75" fill-rule="nonzero" group-id="1,59" node-id="517" stroke="none" target-height="42.900024" target-width="33.400024" target-x="440.8" target-y="846.1"></path><path d="M 463.20 852.30 L 466.20 850.90 L 468.80 850.30 L 471.10 850.20 L 473.30 850.70 L 475.10 851.80 L 476.60 853.40 L 477.70 855.40 L 478.50 857.90 L 478.80 861.20 L 478.50 864.50 L 477.90 867.90 L 475.20 874.70 L 471.10 881.00 L 468.70 883.70 L 466.10 886.00 L 463.30 887.90 L 460.40 889.30 L 457.80 889.90 L 455.50 890.00 L 453.30 889.50 L 451.50 888.40 L 450.00 886.80 L 448.90 884.80 L 448.10 882.30 L 447.80 879.00 L 448.10 875.70 L 448.70 872.30 L 451.40 865.40 L 455.40 859.20 L 457.90 856.50 L 460.50 854.20 L 463.20 852.30 Z" fill="#262e3f" fill-rule="nonzero" group-id="1,60" node-id="522" stroke="none" target-height="39.799988" target-width="31" target-x="447.8" target-y="850.2"></path><path d="M 463.20 857.60 L 467.10 856.20 L 468.70 856.20 L 470.30 856.50 L 471.60 857.30 L 472.60 858.40 L 473.40 859.80 L 474.20 863.80 L 473.50 868.50 L 472.70 871.00 L 471.00 874.50 L 468.80 877.70 L 465.20 881.20 L 461.30 883.50 L 459.50 884.00 L 456.30 883.70 L 455.00 882.90 L 453.20 880.40 L 452.50 876.40 L 453.10 871.70 L 453.90 869.20 L 455.60 865.70 L 457.80 862.50 L 459.50 860.50 L 463.20 857.60 Z" fill="#f3f1fc" fill-rule="nonzero" group-id="1,61" node-id="527" stroke="none" target-height="27.799988" target-width="21.700012" target-x="452.5" target-y="856.2"></path><path d="M 463.30 865.40 L 465.40 864.90 L 466.80 865.70 L 467.20 866.50 L 467.40 867.70 L 467.00 869.70 L 466.20 871.70 L 464.90 873.50 L 463.30 874.80 L 461.20 875.30 L 459.80 874.50 L 459.40 873.70 L 459.20 872.40 L 459.60 870.50 L 460.40 868.50 L 461.70 866.70 L 463.30 865.40 Z M 356.10 783.00 L 353.00 782.00 L 351.10 782.00 L 347.30 783.00 L 342.30 785.90 L 339.70 788.20 L 337.30 791.00 L 333.30 797.20 L 331.70 800.60 L 330.60 804.10 L 329.90 807.50 L 329.60 810.80 L 330.20 815.30 L 331.80 818.50 L 334.20 820.70 L 327.00 816.60 L 324.70 814.40 L 323.10 811.10 L 322.60 806.70 L 322.80 803.40 L 323.50 800.00 L 324.60 796.40 L 326.10 793.00 L 330.10 786.80 L 332.60 784.10 L 335.20 781.80 L 337.90 780.00 L 340.10 778.80 L 344.00 777.90 L 347.50 778.20 L 356.10 783.00 Z" fill="#4c5c75" fill-rule="nonzero" group-id="1,62" node-id="532" stroke="none" target-height="97.39996" target-width="144.79999" target-x="322.6" target-y="777.9"></path><path d="M 345.00 784.00 L 348.00 782.70 L 350.60 782.00 L 352.90 782.00 L 355.10 782.50 L 356.90 783.50 L 358.50 785.10 L 359.60 787.10 L 360.30 789.70 L 360.60 792.90 L 360.40 796.20 L 359.70 799.60 L 357.00 806.50 L 353.00 812.70 L 350.50 815.50 L 347.90 817.80 L 345.10 819.60 L 342.20 821.00 L 339.60 821.70 L 337.40 821.70 L 335.20 821.20 L 333.30 820.10 L 331.80 818.50 L 330.70 816.60 L 329.90 814.00 L 329.60 810.80 L 329.90 807.50 L 330.60 804.10 L 333.30 797.20 L 337.30 791.00 L 339.70 788.20 L 342.30 785.90 L 345.00 784.00 Z" fill="#262e3f" fill-rule="nonzero" group-id="1,63" node-id="537" stroke="none" target-height="39.700012" target-width="31" target-x="329.6" target-y="782"></path><path d="M 345.10 790.60 L 348.60 789.30 L 351.40 789.60 L 352.60 790.20 L 354.30 792.50 L 354.90 796.20 L 354.60 799.30 L 353.60 802.60 L 352.10 805.80 L 350.10 808.70 L 347.70 811.20 L 345.10 813.10 L 341.60 814.40 L 338.80 814.10 L 337.70 813.40 L 336.00 811.20 L 335.30 807.50 L 335.60 804.30 L 336.60 801.00 L 338.20 797.90 L 340.10 795.00 L 342.50 792.40 L 345.10 790.60 Z" fill="#f3f1fc" fill-rule="nonzero" group-id="1,64" node-id="542" stroke="none" target-height="25.100037" target-width="19.600006" target-x="335.3" target-y="789.3"></path><path d="M 345.10 797.20 L 347.20 796.60 L 348.60 797.40 L 349.00 798.20 L 349.20 799.50 L 348.90 801.50 L 348.00 803.50 L 346.70 805.20 L 345.10 806.50 L 343.00 807.00 L 341.70 806.30 L 341.20 805.40 L 341.10 804.20 L 341.40 802.20 L 342.30 800.20 L 343.60 798.40 L 345.10 797.20 Z" fill="#4c5c75" fill-rule="nonzero" group-id="1,65" node-id="547" stroke="none" target-height="10.400024" target-width="8.100006" target-x="341.1" target-y="796.6"></path><path d="M 341.60 761.50 L 341.80 817.90 L 345.50 820.00 L 345.40 763.60 L 341.60 761.50 Z" fill="#dedffb" fill-rule="nonzero" group-id="1,66" node-id="552" stroke="none" target-height="58.5" target-width="3.899994" target-x="341.6" target-y="761.5"></path><path d="M 345.40 763.70 L 345.50 820.00 L 357.10 813.40 L 356.90 757.00 L 345.40 763.70 Z" fill="#b0b8cf" fill-rule="nonzero" group-id="1,67" node-id="557" stroke="none" target-height="63" target-width="11.700012" target-x="345.4" target-y="757"></path><path d="M 341.60 761.50 L 345.30 763.60 L 357.00 757.00 L 353.20 754.80 L 341.60 761.50 Z" fill="#262e3f" fill-rule="nonzero" group-id="1,68" node-id="562" stroke="none" target-height="8.799988" target-width="15.399994" target-x="341.6" target-y="754.8"></path><path d="M 362.30 763.70 L 362.10 769.60 L 361.80 771.10 L 361.10 772.50 L 360.00 773.70 L 358.30 775.00 L 355.50 776.20 L 352.30 776.90 L 348.90 777.20 L 345.60 776.90 L 342.30 776.20 L 339.50 775.00 L 337.80 773.70 L 336.60 772.40 L 335.90 771.00 L 335.70 769.60 L 335.90 763.60 L 336.10 765.10 L 336.80 766.50 L 338.00 767.80 L 339.70 769.10 L 342.50 770.30 L 345.70 771.00 L 349.10 771.30 L 352.50 771.00 L 355.70 770.30 L 358.50 769.10 L 360.20 767.80 L 361.30 766.60 L 362.00 765.20 L 362.30 763.70 Z" fill="#4c5c75" fill-rule="nonzero" group-id="1,69" node-id="567" stroke="none" target-height="13.600037" target-width="26.599976" target-x="335.7" target-y="763.6"></path><path d="M 358.30 758.30 L 361.10 760.50 L 362.20 763.00 L 362.20 764.30 L 361.20 766.80 L 360.10 767.90 L 358.50 769.10 L 355.70 770.30 L 352.50 771.00 L 349.10 771.30 L 345.70 771.00 L 342.50 770.30 L 339.70 769.10 L 338.10 767.90 L 337.00 766.80 L 335.90 764.30 L 335.90 763.00 L 337.00 760.50 L 339.70 758.20 L 342.50 757.00 L 345.70 756.30 L 349.00 756.00 L 352.40 756.30 L 355.60 757.00 L 358.30 758.30 Z M 370.50 791.20 L 367.40 790.30 L 365.60 790.20 L 361.80 791.20 L 356.80 794.20 L 354.20 796.50 L 351.70 799.20 L 347.70 805.40 L 346.20 808.80 L 345.00 812.30 L 344.30 815.70 L 344.10 819.10 L 344.70 823.50 L 346.20 826.80 L 348.60 828.90 L 341.50 824.80 L 339.20 822.60 L 337.60 819.40 L 337.10 814.90 L 337.30 811.60 L 337.90 808.20 L 339.10 804.70 L 340.60 801.30 L 344.60 795.10 L 347.10 792.30 L 349.70 790.00 L 352.40 788.20 L 354.60 787.10 L 358.50 786.10 L 362.00 786.50 L 370.50 791.20 Z" fill="#4c5c75" fill-rule="nonzero" group-id="1,70" node-id="572" stroke="none" target-height="72.900024" target-width="34.600006" target-x="335.9" target-y="756"></path><path d="M 359.50 792.30 L 362.50 790.90 L 365.10 790.30 L 367.30 790.20 L 369.50 790.70 L 371.40 791.80 L 372.90 793.40 L 374.00 795.40 L 374.80 797.90 L 375.10 801.20 L 374.80 804.50 L 374.10 807.90 L 371.40 814.70 L 367.40 820.90 L 365.00 823.70 L 362.40 826.00 L 359.60 827.90 L 356.70 829.30 L 354.10 829.90 L 351.80 830.00 L 349.60 829.40 L 347.80 828.40 L 346.30 826.80 L 345.10 824.80 L 344.40 822.30 L 344.10 819.00 L 344.30 815.70 L 345.00 812.30 L 346.20 808.80 L 349.60 802.20 L 354.20 796.40 L 356.80 794.20 L 359.50 792.30 Z" fill="#262e3f" fill-rule="nonzero" group-id="1,71" node-id="577" stroke="none" target-height="39.799988" target-width="31" target-x="344.1" target-y="790.2"></path><path d="M 359.50 797.60 L 363.40 796.20 L 366.60 796.50 L 367.80 797.30 L 368.90 798.40 L 369.70 799.80 L 370.40 803.80 L 369.80 808.50 L 369.00 811.00 L 367.30 814.50 L 365.10 817.70 L 361.50 821.20 L 357.50 823.50 L 355.70 824.00 L 352.60 823.60 L 351.30 822.90 L 350.30 821.80 L 349.50 820.40 L 348.80 816.40 L 349.40 811.70 L 351.90 805.70 L 355.80 800.50 L 359.50 797.60 Z" fill="#f3f1fc" fill-rule="nonzero" group-id="1,72" node-id="582" stroke="none" target-height="27.799988" target-width="21.600006" target-x="348.8" target-y="796.2"></path><path d="M 359.60 805.40 L 361.70 804.90 L 363.10 805.70 L 363.70 807.70 L 363.30 809.70 L 362.50 811.70 L 361.20 813.50 L 359.60 814.70 L 357.50 815.30 L 356.10 814.50 L 355.70 813.70 L 355.50 812.40 L 355.80 810.50 L 356.70 808.40 L 358.00 806.70 L 359.60 805.40 Z" fill="#4c5c75" fill-rule="nonzero" group-id="1,73" node-id="587" stroke="none" target-height="10.399963" target-width="8.200012" target-x="355.5" target-y="804.9"></path><path d="M 468.20 811.40 L 468.20 833.80 L 429.40 856.50 L 429.40 834.00 L 468.20 811.40 Z" fill="#aa6256" fill-rule="nonzero" group-id="1,74" node-id="592" stroke="none" target-height="45.099976" target-width="38.80002" target-x="429.4" target-y="811.4"></path><path d="M 468.20 811.40 L 429.40 834.00 L 429.40 856.50 L 404.00 841.70 L 310.00 896.20 L 316.10 899.80 L 316.10 922.20 L 277.30 944.70 L 161.40 877.70 L 161.40 855.30 L 200.20 832.80 L 225.80 847.60 L 319.50 793.00 L 313.40 789.50 L 313.60 767.10 L 352.40 744.40 L 468.20 811.40 Z" fill="#aa6256" fill-rule="nonzero" group-id="1,75" node-id="597" stroke="none" target-height="200.29999" target-width="306.80002" target-x="161.4" target-y="744.4"></path><path d="M 339.00 781.70 L 338.90 804.20 L 313.40 789.40 L 313.50 767.00 L 339.00 781.70 Z" fill="#c9cee2" fill-rule="nonzero" group-id="1,76" node-id="602" stroke="none" target-height="37.200012" target-width="25.600006" target-x="313.4" target-y="767"></path><path d="M 429.40 833.90 L 429.40 856.40 L 404.00 841.70 L 404.10 819.30 L 429.40 833.90 Z" fill="#bf7d5a" fill-rule="nonzero" group-id="1,77" node-id="607" stroke="none" target-height="37.100037" target-width="25.399994" target-x="404" target-y="819.3"></path><path d="M 468.20 811.40 L 468.20 833.80 L 429.40 856.40 L 429.40 833.90 L 468.20 811.40 Z M 404.10 819.30 L 404.00 841.70 L 290.70 907.50 L 290.80 885.10 L 404.10 819.30 Z" fill="#aa6256" fill-rule="nonzero" group-id="1,78" node-id="612" stroke="none" target-height="96.099976" target-width="177.5" target-x="290.7" target-y="811.4"></path><path d="M 277.30 922.30 L 277.30 944.70 L 161.40 877.80 L 161.40 855.40 L 277.30 922.30 Z" fill="#bf7d5a" fill-rule="nonzero" group-id="1,79" node-id="617" stroke="none" target-height="89.29999" target-width="115.899994" target-x="161.4" target-y="855.4"></path><path d="M 316.20 899.70 L 316.10 922.20 L 277.30 944.70 L 277.30 922.30 L 316.20 899.70 Z" fill="#aa6256" fill-rule="nonzero" group-id="1,80" node-id="622" stroke="none" target-height="45" target-width="38.900024" target-x="277.3" target-y="899.7"></path><path d="M 468.20 811.40 L 429.40 833.90 L 404.10 819.30 L 290.80 885.10 L 316.20 899.70 L 277.30 922.30 L 161.40 855.40 L 200.20 832.80 L 225.70 847.50 L 339.00 781.70 L 313.50 767.00 L 352.30 744.40 L 468.20 811.40 Z" fill="#dba660" fill-rule="nonzero" group-id="1,81" node-id="627" stroke="none" target-height="177.89996" target-width="306.80002" target-x="161.4" target-y="744.4"></path><path d="M 337.70 507.00 L 336.80 839.40 L 335.80 840.90 L 334.80 841.60 L 313.30 854.10 L 310.80 855.10 L 308.10 855.40 L 305.50 855.10 L 303.00 854.10 L 281.40 841.60 L 280.10 840.60 L 279.40 839.70 L 279.20 838.70 L 279.90 507.00 L 280.10 508.00 L 280.80 509.00 L 282.10 510.00 L 303.70 522.50 L 306.20 523.40 L 308.90 523.70 L 311.50 523.40 L 314.00 522.50 L 335.60 510.00 L 337.10 508.60 L 337.70 507.00 Z" fill="#b0b8cf" fill-rule="nonzero" group-id="1,82" node-id="632" stroke="none" target-height="348.40002" target-width="58.5" target-x="279.2" target-y="507"></path><path d="M 335.50 504.00 L 336.80 505.00 L 337.40 505.90 L 337.70 507.00 L 337.40 508.00 L 336.80 509.00 L 335.60 510.00 L 314.00 522.50 L 311.50 523.40 L 308.90 523.70 L 306.30 523.40 L 303.70 522.50 L 282.10 510.00 L 280.80 509.00 L 280.20 508.00 L 279.90 507.00 L 280.10 506.00 L 280.80 505.00 L 282.10 504.00 L 303.60 491.50 L 306.10 490.60 L 308.80 490.30 L 311.40 490.60 L 313.90 491.50 L 335.50 504.00 Z" fill="#c9cee2" fill-rule="nonzero" group-id="1,83" node-id="637" stroke="none" target-height="33.400024" target-width="57.80002" target-x="279.9" target-y="490.3"></path><path d="M 344.70 484.90 L 344.70 566.20 L 344.00 568.20 L 341.90 569.90 L 315.00 585.70 L 313.00 586.60 L 308.50 587.30 L 303.90 586.60 L 302.00 585.70 L 274.80 570.10 L 273.20 568.80 L 272.30 567.50 L 272.00 566.20 L 272.20 484.90 L 272.80 482.80 L 273.60 482.00 L 302.00 465.40 L 303.90 464.50 L 308.40 463.70 L 313.00 464.50 L 315.00 465.40 L 342.10 481.10 L 344.10 482.80 L 344.70 484.90 Z" fill="#9ea9c9" fill-rule="nonzero" group-id="1,84" node-id="642" stroke="none" target-height="123.599976" target-width="72.70001" target-x="272" target-y="463.7"></path><path d="M 337.70 244.50 L 336.80 484.50 L 335.80 486.00 L 334.80 486.70 L 313.30 499.20 L 310.80 500.10 L 308.10 500.40 L 305.50 500.10 L 303.00 499.20 L 281.40 486.70 L 279.70 485.30 L 279.20 483.70 L 279.90 244.50 L 280.10 245.50 L 280.80 246.50 L 282.10 247.50 L 303.70 260.00 L 306.20 260.90 L 308.90 261.20 L 311.50 260.90 L 314.00 260.00 L 335.60 247.50 L 337.10 246.10 L 337.70 244.50 Z" fill="#b0b8cf" fill-rule="nonzero" group-id="1,85" node-id="647" stroke="none" target-height="255.9" target-width="58.5" target-x="279.2" target-y="244.5"></path><path d="M 335.50 241.50 L 336.80 242.50 L 337.40 243.50 L 337.70 244.50 L 337.40 245.50 L 336.80 246.50 L 335.60 247.50 L 314.00 260.00 L 311.50 260.90 L 308.90 261.20 L 306.30 260.90 L 303.70 260.00 L 282.10 247.50 L 280.80 246.50 L 280.20 245.50 L 279.90 244.50 L 280.10 243.50 L 280.80 242.50 L 282.10 241.50 L 303.60 229.00 L 306.10 228.10 L 308.80 227.80 L 311.40 228.10 L 313.90 229.00 L 335.50 241.50 Z" fill="#c9cee2" fill-rule="nonzero" group-id="1,86" node-id="652" stroke="none" target-height="33.40001" target-width="57.80002" target-x="279.9" target-y="227.8"></path><path d="M 345.10 218.00 L 345.10 248.00 L 344.40 250.00 L 342.30 251.70 L 315.40 267.70 L 313.40 268.50 L 311.20 269.00 L 306.50 269.00 L 302.40 267.70 L 275.20 251.90 L 273.60 250.50 L 272.70 249.20 L 272.40 248.00 L 272.40 218.00 L 272.60 219.00 L 273.20 220.00 L 272.50 218.00 L 273.20 216.10 L 275.20 214.30 L 302.20 198.50 L 304.20 197.60 L 306.40 197.10 L 311.00 197.10 L 313.20 197.60 L 315.20 198.50 L 342.50 214.30 L 344.50 216.00 L 345.10 218.00 Z" fill="#9ea9c9" fill-rule="nonzero" group-id="1,87" node-id="657" stroke="none" target-height="71.899994" target-width="72.70001" target-x="272.4" target-y="197.1"></path><path d="M 345.10 218.00 L 345.10 248.00 L 344.80 249.30 L 344.00 250.60 L 342.40 251.80 L 315.30 267.60 L 313.20 268.40 L 308.80 269.10 L 304.40 268.40 L 302.30 267.60 L 275.10 251.90 L 273.50 250.60 L 272.70 249.30 L 272.40 248.00 L 272.50 218.00 L 273.20 220.00 L 275.30 221.80 L 302.50 237.50 L 304.40 238.30 L 308.90 239.00 L 313.50 238.30 L 315.40 237.50 L 342.50 221.80 L 344.50 220.00 L 345.10 218.00 Z" fill="#9ea9c9" fill-rule="nonzero" group-id="1,88" node-id="662" stroke="none" target-height="51.100006" target-width="72.70001" target-x="272.4" target-y="218"></path><path d="M 342.40 214.20 L 344.00 215.50 L 344.90 216.70 L 345.10 218.00 L 344.90 219.30 L 344.00 220.50 L 342.40 221.80 L 315.40 237.50 L 313.30 238.40 L 308.90 239.10 L 304.50 238.40 L 302.40 237.50 L 275.20 221.80 L 273.60 220.50 L 272.80 219.30 L 272.50 218.00 L 272.80 216.70 L 273.60 215.50 L 275.20 214.30 L 302.30 198.50 L 306.50 197.10 L 311.00 197.10 L 313.10 197.70 L 315.30 198.50 L 342.40 214.20 Z" fill="#c9cee2" fill-rule="nonzero" group-id="1,89" node-id="667" stroke="none" target-height="42" target-width="72.600006" target-x="272.5" target-y="197.1"></path><path d="M 864.60 187.70 L 864.60 269.00 L 863.90 271.10 L 861.80 272.80 L 834.80 288.70 L 832.90 289.50 L 828.30 290.20 L 823.80 289.50 L 821.80 288.70 L 794.50 273.00 L 792.90 271.60 L 792.10 270.30 L 791.90 269.00 L 791.90 187.70 L 792.10 188.70 L 792.70 189.70 L 792.00 187.80 L 792.70 185.80 L 793.50 184.90 L 821.60 168.20 L 823.60 167.40 L 828.20 166.70 L 832.70 167.30 L 834.60 168.20 L 862.00 184.00 L 864.00 185.70 L 864.50 186.70 L 864.60 187.70 Z" fill="#9ea9c9" fill-rule="nonzero" group-id="1,90" node-id="672" stroke="none" target-height="123.500015" target-width="72.69995" target-x="791.9" target-y="166.7"></path><path d="M 864.60 187.70 L 864.50 269.10 L 864.30 270.40 L 863.40 271.60 L 861.80 272.90 L 834.70 288.60 L 832.60 289.50 L 828.20 290.20 L 823.90 289.50 L 821.80 288.60 L 794.60 273.00 L 793.00 271.70 L 792.20 270.40 L 791.90 269.10 L 792.00 187.70 L 792.70 189.70 L 794.70 191.50 L 821.90 207.20 L 823.80 208.00 L 828.40 208.70 L 832.90 208.00 L 834.80 207.20 L 862.00 191.50 L 863.90 189.70 L 864.60 187.70 Z" fill="#9ea9c9" fill-rule="nonzero" group-id="1,91" node-id="677" stroke="none" target-height="102.500015" target-width="72.69995" target-x="791.9" target-y="187.7"></path><path d="M 861.90 183.90 L 863.50 185.20 L 864.30 186.40 L 864.60 187.70 L 864.30 189.00 L 863.50 190.20 L 861.90 191.50 L 834.80 207.20 L 832.70 208.10 L 830.60 208.60 L 826.10 208.60 L 821.90 207.20 L 794.70 191.50 L 793.10 190.20 L 792.20 189.00 L 792.00 187.70 L 792.20 186.50 L 793.10 185.20 L 794.60 184.00 L 821.70 168.30 L 826.00 166.80 L 830.40 166.80 L 832.60 167.40 L 834.70 168.20 L 861.90 183.90 Z" fill="#c9cee2" fill-rule="nonzero" group-id="1,92" node-id="682" stroke="none" target-height="41.800003" target-width="72.599976" target-x="792" target-y="166.8"></path><path d="M 813.60 223.60 L 811.50 222.50 L 807.90 221.60 L 806.10 221.60 L 803.20 222.50 L 684.90 291.20 L 687.90 290.20 L 689.60 290.20 L 693.30 291.20 L 695.40 292.20 L 698.00 294.00 L 700.40 296.20 L 704.80 301.70 L 708.00 308.00 L 709.10 311.30 L 709.80 314.50 L 710.00 317.70 L 709.90 320.00 L 708.80 323.60 L 708.00 325.00 L 705.70 327.10 L 825.20 257.60 L 826.20 256.40 L 827.70 253.30 L 828.30 249.00 L 828.00 245.90 L 827.40 242.70 L 826.30 239.30 L 824.80 236.10 L 821.00 230.20 L 818.70 227.50 L 816.20 225.30 L 813.60 223.60 Z" fill="#d4daea" fill-rule="nonzero" group-id="1,93" node-id="687" stroke="none" target-height="105.5" target-width="143.39996" target-x="684.9" target-y="221.6"></path><path d="M 695.40 292.20 L 698.00 294.00 L 700.40 296.20 L 702.80 298.80 L 706.60 304.70 L 709.10 311.30 L 709.80 314.50 L 710.00 317.70 L 709.70 320.70 L 709.00 323.10 L 708.00 325.00 L 706.50 326.60 L 704.80 327.60 L 702.70 328.10 L 700.50 328.00 L 698.10 327.40 L 695.30 326.10 L 692.70 324.30 L 690.20 322.10 L 685.80 316.60 L 682.60 310.40 L 681.50 307.00 L 680.80 303.80 L 680.60 300.70 L 680.90 297.60 L 681.60 295.20 L 682.60 293.30 L 684.10 291.70 L 685.80 290.70 L 687.90 290.20 L 690.10 290.30 L 692.50 290.90 L 695.40 292.20 Z" fill="#c9cee2" fill-rule="nonzero" group-id="1,94" node-id="692" stroke="none" target-height="37.899994" target-width="29.400024" target-x="680.6" target-y="290.2"></path><path d="M 692.50 257.90 L 691.80 425.50 L 691.50 427.00 L 690.70 428.50 L 689.50 429.90 L 687.60 431.20 L 684.70 432.50 L 681.30 433.30 L 677.70 433.60 L 674.20 433.30 L 670.80 432.50 L 667.80 431.20 L 665.90 429.90 L 664.70 428.50 L 663.90 426.90 L 663.60 425.40 L 664.30 257.80 L 664.60 259.30 L 665.40 260.90 L 666.60 262.30 L 668.50 263.60 L 671.50 264.90 L 674.90 265.80 L 678.50 266.00 L 682.00 265.80 L 685.40 264.90 L 688.40 263.60 L 690.20 262.30 L 691.40 260.90 L 692.20 259.40 L 692.50 257.90 Z" fill="#c9cee2" fill-rule="nonzero" group-id="1,95" node-id="697" stroke="none" target-height="175.80002" target-width="28.900024" target-x="663.6" target-y="257.8"></path><path d="M 688.40 278.30 L 691.30 280.70 L 692.40 283.40 L 692.40 284.70 L 692.00 286.10 L 690.10 288.60 L 688.40 289.80 L 685.40 291.10 L 682.00 291.90 L 678.50 292.20 L 674.90 291.90 L 671.50 291.10 L 668.50 289.80 L 666.80 288.60 L 664.80 286.10 L 664.40 283.40 L 665.50 280.70 L 666.70 279.50 L 668.40 278.30 L 671.30 277.00 L 674.80 276.20 L 678.40 275.90 L 681.90 276.20 L 685.40 277.00 L 688.40 278.30 Z" fill="#c9cee2" fill-rule="nonzero" group-id="1,96" node-id="702" stroke="none" target-height="16.300018" target-width="28" target-x="664.4" target-y="275.9"></path><path d="M 717.10 267.10 L 716.70 349.60 L 715.40 351.40 L 714.10 352.30 L 687.10 368.10 L 685.20 368.90 L 680.60 369.60 L 676.10 368.90 L 674.10 368.10 L 647.00 352.30 L 645.30 351.00 L 644.50 349.80 L 644.20 348.60 L 644.60 266.20 L 645.80 264.20 L 647.00 263.30 L 674.10 247.60 L 676.00 246.80 L 680.60 246.10 L 685.20 246.80 L 687.10 247.60 L 714.30 263.30 L 715.50 264.20 L 716.80 266.10 L 716.80 268.10 L 716.30 269.00 L 716.90 268.10 L 717.10 267.10 Z" fill="#9ea9c9" fill-rule="nonzero" group-id="1,97" node-id="707" stroke="none" target-height="123.5" target-width="72.89996" target-x="644.2" target-y="246.1"></path><path d="M 717.00 267.10 L 716.90 348.50 L 716.70 349.80 L 715.80 351.10 L 714.20 352.30 L 687.10 368.10 L 685.00 368.90 L 680.60 369.60 L 676.30 368.90 L 674.10 368.10 L 647.00 352.40 L 645.40 351.10 L 644.60 349.80 L 644.30 348.50 L 644.40 267.10 L 645.00 269.10 L 647.10 270.90 L 674.30 286.60 L 676.20 287.50 L 680.80 288.20 L 685.30 287.50 L 687.20 286.60 L 714.30 270.90 L 716.30 269.10 L 717.00 267.10 Z" fill="#9ea9c9" fill-rule="nonzero" group-id="1,98" node-id="712" stroke="none" target-height="102.5" target-width="72.70001" target-x="644.3" target-y="267.1"></path><path d="M 714.30 263.30 L 715.90 264.60 L 716.70 265.80 L 717.00 267.10 L 716.70 268.40 L 715.90 269.60 L 714.30 270.90 L 687.20 286.60 L 685.10 287.50 L 680.70 288.20 L 676.40 287.50 L 674.30 286.60 L 647.10 270.90 L 645.50 269.60 L 644.60 268.40 L 644.40 267.10 L 644.60 265.90 L 645.40 264.60 L 647.00 263.40 L 674.10 247.70 L 676.20 246.80 L 680.60 246.10 L 685.00 246.80 L 687.10 247.70 L 714.30 263.30 Z" fill="#c9cee2" fill-rule="nonzero" group-id="1,99" node-id="717" stroke="none" target-height="42.100006" target-width="72.599976" target-x="644.4" target-y="246.1"></path></g></g></svg>