<?xml version="1.0" standalone="no"?><!DOCTYPE svg PUBLIC "-//W3C//DTD SVG 1.1//EN" "http://www.w3.org/Graphics/SVG/1.1/DTD/svg11.dtd"><svg height="512" node-id="1" sillyvg="true" template-height="512" template-width="512" version="1.1" viewBox="0 0 512 512" width="512" xmlns="http://www.w3.org/2000/svg" xmlns:xlink="http://www.w3.org/1999/xlink"><defs node-id="216"></defs><g node-id="765"><g node-id="769"><path d="M 501.50 205.80 L 507.40 210.40 L 510.90 214.60 L 511.70 216.70 L 512.00 218.70 L 511.80 221.00 L 510.30 225.60 L 458.60 334.70 L 453.00 347.30 L 443.50 371.00 L 419.90 434.40 L 417.10 439.60 L 414.10 442.90 L 410.50 444.70 L 408.40 445.00 L 405.10 445.10 L 401.50 444.70 L 389.10 442.20 L 374.30 438.00 L 353.80 431.20 L 333.30 423.80 L 292.00 407.10 L 270.90 398.40 L 265.80 395.90 L 261.10 393.10 L 258.30 390.90 L 255.90 388.60 L 252.80 384.10 L 251.50 379.70 L 251.40 377.30 L 252.60 370.50 L 259.00 348.60 L 264.70 333.70 L 280.40 297.30 L 298.70 253.10 L 312.60 221.70 L 327.30 191.70 L 340.10 167.10 L 346.10 157.60 L 349.50 153.30 L 354.40 148.50 L 356.90 146.70 L 359.60 145.20 L 362.30 144.30 L 365.00 143.90 L 367.50 144.00 L 370.30 144.50 L 375.90 146.10 L 389.80 150.90 L 406.90 158.30 L 441.50 175.60 L 483.90 195.90 L 492.70 200.60 L 501.50 205.80 Z" fill="#b9d5e8" fill-rule="evenodd" group-id="1,5" node-id="224" stroke="none" target-height="301.2" target-width="260.6" target-x="251.4" target-y="143.9"></path></g><g node-id="770"><g node-id="779"><g node-id="801"><path d="M 486.90 237.70 L 487.70 235.90 L 443.20 213.90 L 426.30 205.80 L 367.80 178.90 L 363.20 177.00 L 360.30 176.60 L 359.30 177.30 L 357.10 180.20 L 356.10 183.50 L 356.20 184.70 L 357.10 185.80 L 358.90 187.00 L 415.90 214.80 L 481.70 248.10 L 486.90 237.70 Z" fill="#1a4e72" fill-rule="evenodd" group-id="1,6,15,37" node-id="233" stroke="none" target-height="71.5" target-width="131.6" target-x="356.1" target-y="176.6"></path></g><g node-id="802"><path d="M 475.00 261.70 L 427.10 237.80 L 410.20 229.70 L 351.60 202.80 L 347.10 200.90 L 344.20 200.50 L 343.20 201.20 L 341.00 204.10 L 339.90 207.40 L 340.10 208.50 L 341.00 209.70 L 342.80 210.90 L 399.80 238.70 L 465.50 271.90 L 469.90 273.30 L 475.00 261.70 Z" fill="#1a4e72" fill-rule="evenodd" group-id="1,6,15,38" node-id="238" stroke="none" target-height="72.79999" target-width="135.1" target-x="339.9" target-y="200.5"></path></g><g node-id="803"><path d="M 463.40 286.30 L 405.10 257.70 L 346.50 230.80 L 341.90 229.00 L 339.10 228.60 L 338.00 229.30 L 335.90 232.10 L 334.80 235.40 L 335.00 236.60 L 335.90 237.80 L 337.60 238.90 L 394.70 266.70 L 456.90 298.30 L 463.40 286.30 Z" fill="#1a4e72" fill-rule="evenodd" group-id="1,6,15,39" node-id="243" stroke="none" target-height="69.69998" target-width="128.6" target-x="334.8" target-y="228.6"></path></g><g node-id="804"><path d="M 449.50 311.30 L 389.00 281.60 L 330.40 254.70 L 325.80 252.80 L 322.90 252.40 L 321.90 253.10 L 319.80 256.00 L 318.70 259.30 L 318.80 260.50 L 319.70 261.60 L 321.50 262.80 L 378.50 290.60 L 442.70 323.10 L 449.50 311.30 Z" fill="#1a4e72" fill-rule="evenodd" group-id="1,6,15,40" node-id="248" stroke="none" target-height="70.70001" target-width="130.79999" target-x="318.7" target-y="252.4"></path></g><path d="M 439.50 336.70 L 440.20 335.00 L 395.80 313.00 L 378.90 304.90 L 320.30 278.00 L 315.70 276.10 L 312.90 275.70 L 311.80 276.40 L 309.70 279.30 L 308.60 282.60 L 308.70 283.70 L 309.70 284.90 L 311.40 286.10 L 368.50 313.80 L 434.30 347.10 L 439.50 336.70 Z" fill="#1a4e72" fill-rule="evenodd" group-id="1,6,15,41" node-id="253" stroke="none" target-height="71.399994" target-width="131.6" target-x="308.6" target-y="275.7"></path></g><g node-id="780"><g node-id="806"><g node-id="848"><path d="M 369.40 156.80 L 372.20 155.10 L 373.70 154.70 L 376.40 154.60 L 381.90 156.20 L 383.50 157.20 L 385.20 159.00 L 385.00 160.80 L 384.40 161.50 L 381.90 162.30 L 379.50 162.30 L 376.70 161.90 L 374.00 161.00 L 371.70 159.90 L 370.50 158.90 L 369.40 156.80 Z" fill="#ffffff" fill-rule="evenodd" group-id="1,6,16,42,84" node-id="263" stroke="none" target-height="7.699997" target-width="15.800018" target-x="369.4" target-y="154.6"></path></g><g node-id="849"><path d="M 361.20 159.10 L 358.30 161.50 L 355.10 163.20 L 353.60 163.30 L 352.40 162.90 L 351.30 161.20 L 351.30 160.40 L 352.00 159.20 L 353.30 158.10 L 356.70 156.50 L 358.50 156.30 L 359.90 156.60 L 361.00 157.90 L 361.20 159.10 Z" fill="#ffffff" fill-rule="evenodd" group-id="1,6,16,42,85" node-id="268" stroke="none" target-height="7" target-width="9.900024" target-x="351.3" target-y="156.3"></path></g><path d="M 371.80 167.40 L 371.50 168.30 L 371.60 169.00 L 370.10 170.00 L 368.60 170.60 L 367.10 170.60 L 365.40 170.20 L 363.50 169.20 L 363.50 167.30 L 366.20 165.70 L 367.70 165.30 L 369.20 165.40 L 370.50 166.10 L 371.80 167.40 Z" fill="#ffffff" fill-rule="evenodd" group-id="1,6,16,42,86" node-id="273" stroke="none" target-height="5.300003" target-width="8.299988" target-x="363.5" target-y="165.3"></path></g><g node-id="807"><g node-id="851"><path d="M 500.30 215.70 L 499.60 217.20 L 498.70 218.20 L 497.60 218.70 L 495.00 218.70 L 491.30 217.20 L 489.20 215.70 L 487.40 214.00 L 486.20 212.30 L 485.60 210.00 L 485.90 209.10 L 486.70 208.20 L 487.80 207.70 L 489.10 207.50 L 491.20 207.90 L 493.60 208.90 L 497.80 212.00 L 499.40 214.00 L 500.30 215.70 Z" fill="#ffffff" fill-rule="evenodd" group-id="1,6,16,43,87" node-id="281" stroke="none" target-height="11.199997" target-width="14.699982" target-x="485.6" target-y="207.5"></path></g><g node-id="852"><path d="M 471.70 198.70 L 475.50 201.00 L 476.90 202.10 L 477.70 203.20 L 477.80 204.90 L 477.30 206.00 L 476.50 206.80 L 475.40 207.30 L 473.80 207.50 L 471.30 207.20 L 468.40 206.40 L 465.40 205.20 L 462.70 203.60 L 460.30 201.80 L 458.60 200.00 L 457.90 198.60 L 457.80 197.50 L 458.00 196.40 L 458.70 195.40 L 460.60 194.50 L 462.30 194.50 L 464.20 195.00 L 468.20 196.70 L 471.70 198.70 Z" fill="#ffffff" fill-rule="evenodd" group-id="1,6,16,43,88" node-id="286" stroke="none" target-height="13" target-width="20" target-x="457.8" target-y="194.5"></path></g><path d="M 501.30 229.30 L 501.00 231.90 L 499.10 234.70 L 497.60 235.60 L 496.50 235.90 L 495.40 235.70 L 494.40 235.20 L 493.50 233.40 L 493.50 232.20 L 494.00 230.60 L 495.10 229.10 L 496.50 228.00 L 498.00 227.50 L 499.10 227.60 L 500.10 228.10 L 501.30 229.30 Z" fill="#ffffff" fill-rule="evenodd" group-id="1,6,16,43,89" node-id="291" stroke="none" target-height="8.399994" target-width="7.799988" target-x="493.5" target-y="227.5"></path></g><g node-id="808"><g node-id="854"><path d="M 403.70 432.70 L 403.20 433.80 L 403.20 434.70 L 403.70 435.60 L 404.90 436.60 L 406.80 437.40 L 408.90 437.80 L 411.00 437.90 L 413.00 437.60 L 414.50 436.90 L 415.10 436.20 L 415.40 435.30 L 415.20 434.10 L 413.70 432.50 L 410.20 431.70 L 407.80 431.80 L 403.70 432.70 Z" fill="#ffffff" fill-rule="evenodd" group-id="1,6,16,44,90" node-id="299" stroke="none" target-height="6.1999817" target-width="12.199982" target-x="403.2" target-y="431.7"></path></g><path d="M 393.20 437.90 L 395.50 436.50 L 396.40 434.60 L 396.20 433.30 L 394.60 431.30 L 391.00 429.40 L 384.70 427.30 L 378.30 424.40 L 374.50 423.60 L 372.10 424.50 L 371.20 425.50 L 370.90 426.50 L 371.00 427.40 L 371.80 428.80 L 373.30 430.30 L 377.20 432.70 L 380.60 434.40 L 389.50 437.80 L 391.20 438.10 L 393.20 437.90 Z" fill="#ffffff" fill-rule="evenodd" group-id="1,6,16,44,91" node-id="304" stroke="none" target-height="14.5" target-width="25.5" target-x="370.9" target-y="423.6"></path></g></g><path d="M 382.10 375.50 L 386.00 375.10 L 392.10 373.50 L 393.90 373.40 L 396.20 374.00 L 398.00 375.90 L 398.60 378.30 L 397.50 382.40 L 394.60 389.00 L 394.00 391.10 L 402.50 390.70 L 405.20 390.90 L 408.40 392.00 L 409.90 393.30 L 410.90 394.60 L 412.20 398.30 L 412.60 401.60 L 412.50 405.20 L 411.40 412.20 L 409.40 417.60 L 407.80 411.00 L 407.30 400.20 L 406.90 398.40 L 406.10 397.20 L 405.00 396.30 L 402.50 395.70 L 393.80 397.00 L 392.50 396.90 L 390.20 395.80 L 388.90 393.70 L 388.80 390.60 L 389.20 388.50 L 392.40 379.90 L 389.90 379.50 L 388.50 379.80 L 379.60 383.20 L 378.20 383.40 L 375.90 382.70 L 374.80 381.60 L 373.90 379.50 L 374.10 377.70 L 374.90 375.70 L 377.00 371.40 L 374.50 372.60 L 371.60 374.50 L 359.20 383.90 L 356.10 385.60 L 353.40 386.50 L 351.60 386.60 L 350.00 386.30 L 348.40 385.40 L 347.20 384.00 L 346.50 382.60 L 346.20 381.10 L 346.50 378.80 L 347.30 376.20 L 349.50 371.20 L 338.90 380.50 L 332.80 385.00 L 330.70 386.00 L 327.20 386.80 L 325.70 386.40 L 324.30 385.50 L 323.00 383.80 L 322.40 382.20 L 322.20 380.40 L 322.30 378.20 L 323.10 374.90 L 324.60 371.00 L 326.60 367.20 L 331.60 359.50 L 334.40 356.00 L 340.50 349.40 L 345.10 345.80 L 347.20 344.80 L 348.60 344.50 L 349.90 344.60 L 351.10 345.10 L 352.30 346.10 L 353.50 348.10 L 353.80 349.80 L 353.60 351.60 L 351.00 358.90 L 353.80 357.40 L 355.20 356.10 L 363.50 347.40 L 365.00 346.40 L 367.70 345.80 L 369.00 346.90 L 370.30 348.90 L 370.40 350.60 L 370.00 352.40 L 359.40 372.40 L 363.70 370.20 L 375.40 361.80 L 378.40 359.90 L 381.10 358.70 L 384.40 357.90 L 385.60 358.10 L 387.30 359.00 L 388.30 360.00 L 388.90 361.20 L 388.90 364.00 L 387.20 368.20 L 382.10 375.50 Z M 332.00 375.80 L 334.00 374.50 L 344.10 366.10 L 343.90 364.30 L 344.10 362.50 L 346.00 355.40 L 335.60 369.10 L 332.00 375.80 Z" fill="#1a4e72" fill-rule="evenodd" group-id="1,6,17" node-id="311" stroke="none" target-height="73.100006" target-width="90.399994" target-x="322.2" target-y="344.5"></path></g></g><g node-id="766"><g node-id="771"><g node-id="782"><path d="M 197.80 330.90 L 204.10 329.00 L 211.80 327.70 L 219.10 327.40 L 222.30 327.80 L 224.50 328.50 L 227.00 330.40 L 229.50 334.40 L 230.60 337.30 L 232.00 343.30 L 233.10 350.20 L 238.50 387.90 L 239.70 400.40 L 240.20 412.10 L 239.50 419.60 L 238.80 422.80 L 237.90 425.00 L 234.80 429.40 L 232.80 431.20 L 230.40 432.80 L 227.70 434.10 L 224.80 434.90 L 221.60 435.20 L 218.10 434.90 L 215.40 434.20 L 212.40 432.80 L 208.70 430.10 L 207.10 428.30 L 205.20 425.30 L 202.10 417.30 L 199.00 404.50 L 196.90 392.40 L 191.50 353.80 L 190.80 346.90 L 191.00 340.30 L 192.10 336.30 L 194.20 333.20 L 195.80 332.00 L 197.80 330.90 Z" fill="#b9d5e8" fill-rule="evenodd" group-id="2,7,18" node-id="322" stroke="none" target-height="107.80002" target-width="49.399994" target-x="190.8" target-y="327.4"></path></g><path d="M 209.30 410.70 L 212.00 409.60 L 214.90 409.00 L 224.20 408.10 L 227.80 407.90 L 230.90 408.80 L 230.20 412.50 L 225.20 427.00 L 224.30 428.10 L 223.40 428.10 L 221.30 426.70 L 210.30 414.10 L 209.40 412.00 L 209.30 410.70 Z" fill="#e24e6a" fill-rule="evenodd" group-id="2,7,19" node-id="327" stroke="none" target-height="20.200012" target-width="21.59999" target-x="209.3" target-y="407.9"></path></g><g node-id="772"><g node-id="784"><path d="M 83.50 65.30 L 91.80 63.30 L 100.70 61.70 L 164.00 53.90 L 245.10 41.70 L 251.30 41.00 L 257.10 40.80 L 260.90 40.90 L 264.30 41.50 L 267.50 42.40 L 269.70 43.40 L 273.50 46.30 L 275.10 48.20 L 276.90 51.50 L 279.70 59.60 L 284.20 81.80 L 291.40 124.70 L 303.00 200.10 L 306.50 225.60 L 309.00 249.40 L 310.00 265.40 L 310.20 273.20 L 309.40 285.40 L 307.70 294.30 L 305.60 300.70 L 303.10 306.70 L 300.10 312.50 L 293.30 323.50 L 289.50 328.60 L 283.10 336.10 L 270.50 348.30 L 261.90 354.00 L 254.30 358.10 L 249.00 360.60 L 237.60 364.90 L 230.00 367.00 L 215.50 369.90 L 208.60 370.70 L 199.20 371.30 L 190.30 371.20 L 181.90 370.50 L 173.50 369.20 L 165.60 367.50 L 158.20 365.40 L 153.80 363.50 L 149.40 361.20 L 136.90 354.20 L 127.60 347.40 L 122.40 343.20 L 117.50 338.60 L 110.00 330.20 L 104.90 322.70 L 102.80 318.60 L 98.70 308.90 L 96.20 300.90 L 93.90 292.20 L 90.00 274.00 L 87.00 256.50 L 74.50 157.90 L 68.30 100.80 L 67.80 92.80 L 67.80 85.10 L 68.10 81.40 L 69.60 75.60 L 71.90 71.70 L 75.10 68.90 L 80.00 66.50 L 83.50 65.30 Z" fill="#14334f" fill-rule="evenodd" group-id="2,8,20" node-id="335" stroke="none" target-height="330.5" target-width="242.40001" target-x="67.8" target-y="40.8"></path></g><g node-id="785"><g node-id="809"><g node-id="856"><path d="M 210.90 352.90 L 210.70 354.50 L 211.00 355.60 L 211.80 356.50 L 214.30 357.60 L 218.80 357.70 L 223.10 356.50 L 225.40 354.80 L 225.90 353.80 L 225.90 352.60 L 225.30 351.20 L 223.70 349.90 L 220.70 349.50 L 218.50 349.80 L 214.20 351.20 L 210.90 352.90 Z" fill="#ffffff" fill-rule="evenodd" group-id="2,8,21,45,92" node-id="344" stroke="none" target-height="8.200012" target-width="15.199997" target-x="210.7" target-y="349.5"></path></g><path d="M 199.60 362.60 L 201.40 361.20 L 202.10 360.10 L 202.60 358.90 L 202.60 357.50 L 201.90 356.00 L 200.70 354.80 L 198.90 353.80 L 194.40 352.80 L 186.00 352.20 L 177.40 350.60 L 175.10 350.50 L 171.80 351.10 L 169.80 352.60 L 169.00 354.10 L 168.90 355.40 L 169.40 356.50 L 170.20 357.50 L 173.10 359.30 L 178.50 361.10 L 186.80 362.50 L 195.10 363.50 L 198.10 363.20 L 199.60 362.60 Z" fill="#ffffff" fill-rule="evenodd" group-id="2,8,21,45,93" node-id="349" stroke="none" target-height="13" target-width="33.700012" target-x="168.9" target-y="350.5"></path></g><g node-id="810"><g node-id="858"><path d="M 105.50 291.10 L 107.10 292.60 L 110.30 297.30 L 111.80 300.30 L 115.50 310.10 L 115.90 311.80 L 115.80 314.30 L 114.70 315.50 L 113.70 315.80 L 111.90 315.20 L 109.60 312.80 L 106.60 307.30 L 104.10 301.00 L 102.60 295.10 L 102.30 292.80 L 103.60 291.60 L 105.50 291.10 Z" fill="#ffffff" fill-rule="evenodd" group-id="2,8,21,46,94" node-id="357" stroke="none" target-height="24.699982" target-width="13.599998" target-x="102.3" target-y="291.1"></path></g><g node-id="859"><path d="M 128.80 313.90 L 130.00 313.30 L 132.20 313.30 L 133.80 314.10 L 135.30 315.40 L 137.40 319.10 L 137.90 321.00 L 137.90 322.70 L 137.00 324.60 L 136.10 325.10 L 135.10 325.20 L 133.80 324.80 L 131.10 322.90 L 128.60 320.10 L 127.80 318.60 L 127.40 316.30 L 127.70 315.40 L 128.80 313.90 Z" fill="#ffffff" fill-rule="evenodd" group-id="2,8,21,46,95" node-id="362" stroke="none" target-height="11.900024" target-width="10.499992" target-x="127.4" target-y="313.3"></path></g><path d="M 130.70 332.10 L 131.70 331.50 L 132.80 331.40 L 134.20 331.70 L 136.20 332.70 L 138.20 334.30 L 140.30 337.10 L 141.10 338.70 L 141.50 340.30 L 141.00 342.00 L 140.30 342.60 L 139.10 342.80 L 137.50 342.50 L 135.80 341.80 L 134.00 340.50 L 131.50 337.70 L 130.50 336.20 L 129.90 333.80 L 130.70 332.10 Z" fill="#ffffff" fill-rule="evenodd" group-id="2,8,21,46,96" node-id="367" stroke="none" target-height="11.399994" target-width="11.600006" target-x="129.9" target-y="331.4"></path></g></g></g><g node-id="773"><g node-id="786"><path d="M 92.10 83.30 L 99.10 81.30 L 114.50 78.60 L 178.20 69.90 L 220.70 63.70 L 241.90 61.20 L 252.10 60.50 L 258.00 61.10 L 262.30 62.90 L 265.20 65.80 L 266.50 67.80 L 268.10 72.00 L 269.40 76.70 L 275.40 106.00 L 282.90 155.90 L 287.20 187.10 L 288.90 202.50 L 290.40 223.10 L 290.00 234.00 L 289.20 239.20 L 287.90 244.10 L 286.10 248.50 L 283.80 252.60 L 281.00 256.50 L 277.80 260.20 L 272.30 265.30 L 266.30 270.20 L 260.70 274.10 L 254.40 277.80 L 247.50 281.30 L 240.40 284.30 L 232.80 287.00 L 224.80 289.40 L 216.80 291.40 L 208.60 293.00 L 192.40 294.80 L 177.30 295.20 L 169.80 294.90 L 155.70 293.10 L 148.90 291.60 L 142.50 289.70 L 136.40 287.40 L 127.30 283.20 L 123.20 280.90 L 119.30 278.20 L 115.80 275.10 L 112.40 271.40 L 109.50 267.40 L 106.90 262.70 L 104.50 257.10 L 100.90 244.90 L 99.30 237.70 L 96.20 219.20 L 93.40 200.50 L 86.00 144.60 L 82.50 108.30 L 82.10 102.80 L 82.10 96.90 L 82.90 91.70 L 83.80 89.60 L 85.00 87.80 L 86.40 86.40 L 89.00 84.60 L 92.10 83.30 Z" fill="#ffffff" fill-rule="evenodd" group-id="2,9,22" node-id="377" stroke="none" target-height="234.70001" target-width="208.29999" target-x="82.1" target-y="60.5"></path></g><g node-id="787"><g node-id="811"><path d="M 258.40 96.00 L 267.30 165.20 L 272.90 200.50 L 267.70 203.60 L 261.80 206.40 L 248.70 211.40 L 234.50 215.30 L 223.50 217.70 L 212.60 219.60 L 191.70 222.20 L 178.00 223.40 L 164.80 224.10 L 147.50 224.10 L 131.30 222.90 L 123.60 221.70 L 116.30 220.20 L 111.90 184.40 L 107.90 149.10 L 104.50 114.20 L 124.00 107.20 L 144.10 100.90 L 154.90 98.10 L 165.40 95.90 L 175.50 94.30 L 185.60 93.10 L 195.50 92.40 L 214.60 92.10 L 232.70 93.00 L 258.40 96.00 Z" fill="#b9d5e8" fill-rule="evenodd" group-id="2,9,23,47" node-id="384" stroke="none" target-height="132" target-width="168.4" target-x="104.5" target-y="92.1"></path></g><g node-id="812"><g node-id="861"><g node-id="878"><path d="M 132.20 122.60 L 133.70 123.60 L 134.70 125.10 L 135.80 128.90 L 137.30 144.10 L 137.60 149.70 L 137.50 155.50 L 136.70 160.50 L 136.00 161.90 L 134.90 163.00 L 133.40 163.70 L 131.80 162.30 L 130.70 160.50 L 129.90 158.50 L 128.60 151.90 L 127.60 141.50 L 127.70 136.30 L 128.80 128.50 L 130.50 123.80 L 131.00 123.10 L 132.20 122.60 Z" fill="#ffffff" fill-rule="evenodd" group-id="2,9,23,48,97,114" node-id="393" stroke="none" target-height="41.1" target-width="10.000008" target-x="127.6" target-y="122.6"></path></g><path d="M 137.40 170.40 L 138.80 172.70 L 139.90 175.70 L 140.70 179.00 L 142.20 193.40 L 142.50 198.80 L 142.30 201.50 L 141.20 204.90 L 140.40 205.60 L 139.30 206.00 L 137.50 205.50 L 136.80 204.60 L 135.10 200.30 L 134.00 194.80 L 132.90 183.50 L 132.70 177.80 L 133.20 173.10 L 133.70 171.90 L 135.00 170.50 L 137.40 170.40 Z" fill="#ffffff" fill-rule="evenodd" group-id="2,9,23,48,97,115" node-id="398" stroke="none" target-height="35.600006" target-width="9.800003" target-x="132.7" target-y="170.4"></path></g><g node-id="862"><g node-id="880"><path d="M 150.90 121.00 L 152.10 122.20 L 153.20 125.40 L 154.90 151.80 L 155.10 155.20 L 154.60 158.60 L 153.50 160.00 L 152.50 160.40 L 151.60 160.20 L 150.70 159.70 L 150.00 158.50 L 148.50 153.50 L 147.70 147.60 L 146.80 135.70 L 147.00 128.40 L 147.60 125.10 L 148.70 121.90 L 150.90 121.00 Z" fill="#ffffff" fill-rule="evenodd" group-id="2,9,23,48,98,116" node-id="406" stroke="none" target-height="39.399994" target-width="8.300003" target-x="146.8" target-y="121"></path></g><g node-id="881"><path d="M 157.20 120.30 L 160.50 119.40 L 165.70 119.00 L 177.50 118.70 L 180.50 119.30 L 181.50 120.00 L 181.80 121.00 L 181.60 122.00 L 180.80 122.80 L 178.00 124.00 L 174.30 124.80 L 169.60 125.40 L 160.50 125.50 L 158.10 125.10 L 155.90 123.90 L 155.50 123.20 L 155.40 122.00 L 155.70 121.40 L 157.20 120.30 Z" fill="#ffffff" fill-rule="evenodd" group-id="2,9,23,48,98,117" node-id="411" stroke="none" target-height="6.800003" target-width="26.40001" target-x="155.4" target-y="118.7"></path></g><g node-id="882"><path d="M 188.50 118.60 L 190.20 118.80 L 191.90 121.00 L 193.50 125.80 L 195.00 134.00 L 196.20 144.20 L 196.40 150.00 L 195.70 154.40 L 194.30 156.10 L 193.40 156.40 L 192.40 156.30 L 191.50 155.70 L 190.60 154.60 L 188.80 149.70 L 187.70 143.50 L 186.40 133.30 L 186.10 124.20 L 187.00 120.20 L 188.50 118.60 Z" fill="#ffffff" fill-rule="evenodd" group-id="2,9,23,48,98,118" node-id="416" stroke="none" target-height="37.799995" target-width="10.299988" target-x="186.1" target-y="118.6"></path></g><g node-id="883"><path d="M 157.70 202.90 L 156.40 201.70 L 155.40 199.80 L 154.00 195.00 L 153.10 189.90 L 151.70 178.10 L 151.90 167.80 L 154.10 167.20 L 155.90 168.00 L 157.40 174.00 L 158.30 179.80 L 160.00 197.60 L 159.40 200.90 L 157.70 202.90 Z" fill="#ffffff" fill-rule="evenodd" group-id="2,9,23,48,98,119" node-id="421" stroke="none" target-height="35.699997" target-width="8.300003" target-x="151.7" target-y="167.2"></path></g><g node-id="884"><path d="M 195.60 162.70 L 197.30 166.00 L 198.70 169.70 L 199.60 173.80 L 200.50 180.10 L 201.20 190.70 L 201.10 195.00 L 200.80 197.10 L 199.50 199.60 L 197.60 200.40 L 195.90 199.60 L 195.10 198.60 L 193.30 194.10 L 192.10 188.20 L 191.00 175.20 L 191.10 168.80 L 192.00 164.40 L 193.30 162.90 L 195.60 162.70 Z" fill="#ffffff" fill-rule="evenodd" group-id="2,9,23,48,98,120" node-id="426" stroke="none" target-height="37.699997" target-width="10.199997" target-x="191" target-y="162.7"></path></g><path d="M 164.60 201.30 L 173.30 199.20 L 177.90 198.60 L 186.00 198.40 L 188.00 198.70 L 189.80 199.80 L 190.10 200.50 L 189.90 201.40 L 188.50 202.70 L 184.50 203.90 L 168.40 205.60 L 164.70 206.50 L 163.70 206.50 L 162.90 206.10 L 162.20 205.10 L 162.10 203.20 L 163.10 202.10 L 164.60 201.30 Z" fill="#ffffff" fill-rule="evenodd" group-id="2,9,23,48,98,121" node-id="431" stroke="none" target-height="8.100006" target-width="28" target-x="162.1" target-y="198.4"></path></g><g node-id="863"><g node-id="886"><path d="M 241.40 112.80 L 240.90 114.00 L 240.00 114.80 L 238.80 115.40 L 224.80 118.50 L 215.10 119.70 L 212.00 119.70 L 207.40 118.70 L 207.60 117.00 L 209.20 115.50 L 214.90 113.90 L 224.90 112.30 L 235.30 111.20 L 239.00 111.40 L 240.40 111.90 L 241.40 112.80 Z" fill="#ffffff" fill-rule="evenodd" group-id="2,9,23,48,99,122" node-id="439" stroke="none" target-height="8.5" target-width="34" target-x="207.4" target-y="111.2"></path></g><g node-id="887"><path d="M 207.30 121.50 L 209.00 126.30 L 212.60 147.60 L 212.70 150.00 L 211.90 153.00 L 211.20 153.70 L 210.10 154.20 L 209.00 154.20 L 208.10 153.70 L 207.30 152.90 L 205.90 148.90 L 204.40 140.60 L 203.50 132.10 L 203.60 124.70 L 204.20 122.30 L 204.70 121.50 L 205.50 121.30 L 207.30 121.50 Z" fill="#ffffff" fill-rule="evenodd" group-id="2,9,23,48,99,123" node-id="444" stroke="none" target-height="32.899994" target-width="9.199997" target-x="203.5" target-y="121.3"></path></g><g node-id="888"><path d="M 213.20 155.50 L 218.40 154.00 L 243.50 151.50 L 246.60 152.10 L 247.70 153.40 L 247.30 154.80 L 246.70 155.50 L 243.60 156.90 L 239.50 157.90 L 232.10 159.20 L 222.00 160.20 L 214.80 160.40 L 211.50 159.80 L 210.30 158.50 L 210.40 156.90 L 213.20 155.50 Z" fill="#ffffff" fill-rule="evenodd" group-id="2,9,23,48,99,124" node-id="449" stroke="none" target-height="8.899994" target-width="37.399994" target-x="210.3" target-y="151.5"></path></g><g node-id="889"><path d="M 251.30 157.00 L 253.10 160.50 L 254.30 165.80 L 255.10 176.60 L 256.70 190.00 L 256.70 191.70 L 256.40 193.10 L 255.00 194.30 L 253.70 194.50 L 252.60 193.80 L 251.30 191.00 L 247.20 166.30 L 247.20 160.40 L 247.70 158.60 L 248.90 157.20 L 251.30 157.00 Z" fill="#ffffff" fill-rule="evenodd" group-id="2,9,23,48,99,125" node-id="454" stroke="none" target-height="37.5" target-width="9.500015" target-x="247.2" target-y="157"></path></g><path d="M 215.40 195.50 L 217.40 194.60 L 223.30 193.40 L 238.60 191.80 L 243.70 191.50 L 246.00 191.70 L 248.80 192.70 L 249.60 194.30 L 249.40 195.10 L 248.70 195.90 L 245.00 197.50 L 241.90 198.30 L 227.40 200.30 L 218.90 201.00 L 215.00 200.50 L 213.50 199.50 L 213.00 197.60 L 213.90 196.40 L 215.40 195.50 Z" fill="#ffffff" fill-rule="evenodd" group-id="2,9,23,48,99,126" node-id="459" stroke="none" target-height="9.5" target-width="36.600006" target-x="213" target-y="191.5"></path></g></g></g><g node-id="788"><g node-id="813"><path d="M 163.20 248.10 L 164.10 250.90 L 164.40 253.80 L 164.30 263.30 L 164.10 266.80 L 162.90 269.90 L 159.30 268.70 L 145.30 262.30 L 144.40 261.20 L 144.50 260.40 L 146.10 258.50 L 159.70 248.80 L 161.90 248.10 L 163.20 248.10 Z" fill="#e24e6a" fill-rule="evenodd" group-id="2,9,24,49" node-id="469" stroke="none" target-height="21.799988" target-width="20" target-x="144.4" target-y="248.1"></path></g><g node-id="814"><path d="M 236.30 238.60 L 235.50 241.40 L 235.30 244.30 L 235.70 253.70 L 236.00 257.30 L 237.30 260.30 L 240.90 259.00 L 254.60 252.20 L 255.60 251.10 L 255.40 250.30 L 253.70 248.40 L 239.80 239.20 L 237.60 238.50 L 236.30 238.60 Z" fill="#e24e6a" fill-rule="evenodd" group-id="2,9,24,50" node-id="474" stroke="none" target-height="21.799988" target-width="20.300003" target-x="235.3" target-y="238.5"></path></g><path d="M 195.70 248.40 L 198.10 247.60 L 200.40 247.30 L 202.50 247.60 L 204.60 248.40 L 206.30 249.60 L 207.70 251.20 L 208.80 253.20 L 209.30 255.40 L 209.40 258.20 L 209.00 259.70 L 207.60 262.70 L 205.80 264.40 L 203.70 265.80 L 200.60 266.60 L 197.60 266.20 L 194.70 264.70 L 193.30 263.60 L 191.40 261.00 L 190.40 257.40 L 190.40 255.70 L 191.00 253.30 L 192.20 251.30 L 193.80 249.60 L 195.70 248.40 Z" fill="#e24e6a" fill-rule="evenodd" group-id="2,9,24,51" node-id="479" stroke="none" target-height="19.300003" target-width="19" target-x="190.4" target-y="247.3"></path></g></g></g><g node-id="767"><g node-id="774"><g node-id="789"><path d="M 146.20 407.00 L 127.50 414.70 L 124.80 407.30 L 32.40 186.90 L 28.00 174.60 L 27.60 172.30 L 27.70 170.30 L 28.30 168.50 L 29.60 166.90 L 33.40 164.40 L 35.60 163.60 L 39.70 163.10 L 41.90 163.40 L 42.90 164.10 L 45.10 166.50 L 46.50 169.00 L 61.00 202.70 L 146.20 407.00 Z" fill="#b9d5e8" fill-rule="evenodd" group-id="3,10,25" node-id="491" stroke="none" target-height="251.6" target-width="118.6" target-x="27.6" target-y="163.1"></path></g><g node-id="790"><path d="M 43.90 172.40 L 45.10 173.20 L 47.60 177.10 L 57.20 200.10 L 91.90 287.30 L 99.20 307.20 L 107.20 326.20 L 121.60 362.10 L 121.60 362.80 L 124.90 372.20 L 124.70 373.30 L 124.10 374.40 L 122.80 374.20 L 121.20 372.50 L 113.20 354.90 L 96.60 316.00 L 94.10 309.30 L 91.40 303.90 L 88.90 297.20 L 81.70 280.30 L 72.80 258.00 L 64.00 234.60 L 44.10 179.60 L 43.00 174.70 L 43.10 172.60 L 43.50 172.20 L 43.90 172.40 Z" fill="#ffffff" fill-rule="evenodd" group-id="3,10,26" node-id="496" stroke="none" target-height="202.2" target-width="81.9" target-x="43" target-y="172.2"></path></g><g node-id="791"><g node-id="816"><path d="M 35.70 176.80 L 35.10 176.10 L 34.10 176.10 L 29.20 178.20 L 30.00 180.50 L 35.10 178.40 L 35.70 177.70 L 35.70 176.80 Z" fill="#1a4e72" fill-rule="nonzero" group-id="3,10,27,52" node-id="503" stroke="none" target-height="4.399994" target-width="6.5" target-x="29.2" target-y="176.1"></path></g><g node-id="817"><path d="M 40.90 189.10 L 40.20 188.40 L 39.30 188.40 L 34.00 190.70 L 34.90 192.90 L 40.20 190.70 L 40.90 190.00 L 40.90 189.10 Z" fill="#1a4e72" fill-rule="nonzero" group-id="3,10,27,53" node-id="508" stroke="none" target-height="4.5" target-width="6.9000015" target-x="34" target-y="188.4"></path></g><g node-id="818"><path d="M 46.10 201.40 L 45.40 200.70 L 44.50 200.70 L 39.20 203.00 L 40.10 205.30 L 45.40 203.00 L 46.10 202.40 L 46.10 201.40 Z" fill="#1a4e72" fill-rule="nonzero" group-id="3,10,27,54" node-id="513" stroke="none" target-height="4.600006" target-width="6.8999977" target-x="39.2" target-y="200.7"></path></g><g node-id="819"><path d="M 51.30 213.70 L 50.60 213.00 L 49.60 213.10 L 44.40 215.30 L 45.30 217.60 L 50.60 215.30 L 51.30 214.70 L 51.30 213.70 Z" fill="#1a4e72" fill-rule="nonzero" group-id="3,10,27,55" node-id="518" stroke="none" target-height="4.600006" target-width="6.8999977" target-x="44.4" target-y="213"></path></g><g node-id="820"><path d="M 56.40 226.00 L 55.80 225.30 L 54.80 225.30 L 49.60 227.60 L 50.50 229.90 L 55.80 227.60 L 56.40 227.00 L 56.40 226.00 Z" fill="#1a4e72" fill-rule="nonzero" group-id="3,10,27,56" node-id="523" stroke="none" target-height="4.599991" target-width="6.800003" target-x="49.6" target-y="225.3"></path></g><g node-id="821"><path d="M 61.60 238.30 L 60.90 237.70 L 60.00 237.70 L 54.80 239.90 L 55.70 242.10 L 60.90 239.90 L 61.60 239.30 L 61.60 238.30 Z" fill="#1a4e72" fill-rule="nonzero" group-id="3,10,27,57" node-id="528" stroke="none" target-height="4.400009" target-width="6.799999" target-x="54.8" target-y="237.7"></path></g><g node-id="822"><path d="M 66.80 250.60 L 66.10 250.00 L 65.20 250.00 L 59.90 252.20 L 60.90 254.50 L 66.10 252.30 L 66.80 251.60 L 66.80 250.60 Z" fill="#1a4e72" fill-rule="nonzero" group-id="3,10,27,58" node-id="533" stroke="none" target-height="4.5" target-width="6.9000015" target-x="59.9" target-y="250"></path></g><g node-id="823"><path d="M 72.10 262.90 L 71.50 262.30 L 70.50 262.30 L 65.10 264.50 L 66.10 266.80 L 71.50 264.60 L 72.10 263.90 L 72.10 262.90 Z" fill="#1a4e72" fill-rule="nonzero" group-id="3,10,27,59" node-id="538" stroke="none" target-height="4.5" target-width="7" target-x="65.1" target-y="262.3"></path></g><g node-id="824"><path d="M 77.30 275.20 L 76.60 274.60 L 75.70 274.60 L 70.30 276.80 L 71.30 279.10 L 76.70 276.80 L 77.30 276.20 L 77.30 275.20 Z" fill="#1a4e72" fill-rule="nonzero" group-id="3,10,27,60" node-id="543" stroke="none" target-height="4.5" target-width="7" target-x="70.3" target-y="274.6"></path></g><g node-id="825"><path d="M 82.50 287.50 L 81.80 286.90 L 80.90 286.90 L 75.50 289.20 L 76.40 291.50 L 81.80 289.20 L 82.50 288.50 L 82.50 287.50 Z" fill="#1a4e72" fill-rule="nonzero" group-id="3,10,27,61" node-id="548" stroke="none" target-height="4.600006" target-width="7" target-x="75.5" target-y="286.9"></path></g><g node-id="826"><path d="M 87.70 299.90 L 87.00 299.20 L 86.00 299.20 L 80.60 301.50 L 81.60 303.80 L 87.00 301.50 L 87.70 300.80 L 87.70 299.90 Z" fill="#1a4e72" fill-rule="nonzero" group-id="3,10,27,62" node-id="553" stroke="none" target-height="4.5999756" target-width="7.0999985" target-x="80.6" target-y="299.2"></path></g><g node-id="827"><path d="M 92.80 312.20 L 92.20 311.50 L 91.20 311.50 L 85.70 313.80 L 86.70 316.10 L 92.20 313.80 L 92.80 313.10 L 92.80 312.20 Z" fill="#1a4e72" fill-rule="nonzero" group-id="3,10,27,63" node-id="558" stroke="none" target-height="4.600006" target-width="7.100006" target-x="85.7" target-y="311.5"></path></g><g node-id="828"><path d="M 98.00 324.50 L 97.30 323.80 L 96.40 323.80 L 90.90 326.10 L 91.80 328.40 L 97.40 326.10 L 98.00 325.40 L 98.00 324.50 Z" fill="#1a4e72" fill-rule="nonzero" group-id="3,10,27,64" node-id="563" stroke="none" target-height="4.600006" target-width="7.0999985" target-x="90.9" target-y="323.8"></path></g><g node-id="829"><path d="M 103.20 336.80 L 102.50 336.10 L 101.60 336.10 L 96.00 338.40 L 97.00 340.70 L 102.60 338.40 L 103.20 337.70 L 103.20 336.80 Z" fill="#1a4e72" fill-rule="nonzero" group-id="3,10,27,65" node-id="568" stroke="none" target-height="4.600006" target-width="7.199997" target-x="96" target-y="336.1"></path></g><g node-id="830"><path d="M 108.40 349.10 L 107.70 348.40 L 106.80 348.40 L 101.20 350.80 L 102.10 353.00 L 107.70 350.70 L 108.40 350.00 L 108.40 349.10 Z" fill="#1a4e72" fill-rule="nonzero" group-id="3,10,27,66" node-id="573" stroke="none" target-height="4.600006" target-width="7.2000046" target-x="101.2" target-y="348.4"></path></g><g node-id="831"><path d="M 113.60 361.40 L 112.90 360.70 L 111.90 360.70 L 106.30 363.10 L 107.20 365.40 L 112.90 363.00 L 113.60 362.30 L 113.60 361.40 Z" fill="#1a4e72" fill-rule="nonzero" group-id="3,10,27,67" node-id="578" stroke="none" target-height="4.6999817" target-width="7.2999954" target-x="106.3" target-y="360.7"></path></g><g node-id="832"><path d="M 118.70 373.70 L 118.10 373.00 L 117.10 373.00 L 111.30 375.50 L 112.30 377.80 L 118.10 375.30 L 118.80 374.60 L 118.70 373.70 Z" fill="#1a4e72" fill-rule="nonzero" group-id="3,10,27,68" node-id="583" stroke="none" target-height="4.799988" target-width="7.5" target-x="111.3" target-y="373"></path></g><g node-id="833"><path d="M 123.90 386.00 L 123.20 385.30 L 122.30 385.30 L 116.40 387.80 L 117.40 390.10 L 123.30 387.60 L 123.90 386.90 L 123.90 386.00 Z" fill="#1a4e72" fill-rule="nonzero" group-id="3,10,27,69" node-id="588" stroke="none" target-height="4.8000183" target-width="7.5" target-x="116.4" target-y="385.3"></path></g><path d="M 129.10 398.30 L 128.40 397.60 L 127.50 397.60 L 121.60 400.10 L 122.60 402.40 L 128.40 399.90 L 129.10 399.20 L 129.10 398.30 Z" fill="#1a4e72" fill-rule="nonzero" group-id="3,10,27,70" node-id="593" stroke="none" target-height="4.799988" target-width="7.5000076" target-x="121.6" target-y="397.6"></path></g></g><g node-id="775"><g node-id="792"><g node-id="835"><path d="M 17.60 151.70 L 17.20 150.20 L 17.40 148.80 L 18.10 147.60 L 19.30 146.70 L 28.40 142.50 L 29.80 142.10 L 31.20 142.30 L 32.40 143.10 L 33.30 144.30 L 39.80 157.90 L 40.10 159.40 L 39.90 160.80 L 39.20 162.00 L 38.00 162.90 L 28.90 167.10 L 27.50 167.50 L 26.10 167.30 L 24.90 166.50 L 24.00 165.40 L 17.60 151.70 Z" fill="#e24e6a" fill-rule="nonzero" group-id="3,11,28,71" node-id="604" stroke="none" target-height="25.399994" target-width="22.899998" target-x="17.2" target-y="142.1"></path></g><path d="M 16.60 136.90 L 16.90 135.50 L 17.90 134.50 L 21.00 133.20 L 22.50 133.50 L 29.00 142.30 L 29.10 144.10 L 27.90 145.40 L 22.30 148.10 L 20.50 148.10 L 19.20 146.90 L 16.60 136.90" fill="#e24e6a" fill-rule="nonzero" group-id="3,11,28,72" node-id="609" stroke="none" target-height="14.900009" target-width="12.5" target-x="16.6" target-y="133.2"></path></g><g node-id="793"><g node-id="837"><path d="M 18.50 135.00 L 20.30 134.10 L 0.60 93.80 L 0.20 93.70 L 0.00 94.10 L 18.50 135.00 Z" fill="#1a4e72" fill-rule="nonzero" group-id="3,11,29,73" node-id="617" stroke="none" target-height="41.300003" target-width="20.3" target-x="0" target-y="93.7"></path></g><path d="M 17.30 134.80 L 17.20 134.20 L 17.70 133.70 L 20.50 132.70 L 20.90 133.10 L 20.90 133.70 L 20.50 134.20 L 18.40 135.20 L 17.70 135.20 L 17.30 134.80" fill="#1a4e72" fill-rule="nonzero" group-id="3,11,29,74" node-id="622" stroke="none" target-height="2.5" target-width="3.6999989" target-x="17.2" target-y="132.7"></path></g><path d="M 21.20 170.20 L 21.10 168.60 L 22.20 167.50 L 42.70 157.80 L 44.30 157.80 L 45.50 158.80 L 45.50 160.40 L 44.50 161.60 L 24.00 171.20 L 22.40 171.30 L 21.20 170.20" fill="#e24e6a" fill-rule="nonzero" group-id="3,11,30" node-id="628" stroke="none" target-height="13.5" target-width="24.4" target-x="21.1" target-y="157.8"></path></g><g node-id="776"><g node-id="795"><path d="M 150.60 411.50 L 158.30 411.60 L 160.00 412.00 L 161.40 412.80 L 162.80 414.30 L 164.00 416.20 L 169.70 428.90 L 173.30 437.90 L 176.20 446.50 L 178.10 446.00 L 181.40 445.90 L 182.20 446.30 L 182.80 447.60 L 182.90 448.70 L 182.60 449.60 L 181.50 451.00 L 177.90 453.30 L 139.10 469.50 L 136.30 470.50 L 133.30 471.20 L 131.80 471.20 L 130.70 470.90 L 129.80 470.20 L 129.30 468.90 L 129.30 467.80 L 130.10 466.20 L 134.30 463.70 L 125.00 440.40 L 123.70 436.30 L 123.00 432.60 L 122.90 429.90 L 123.80 426.20 L 124.70 424.70 L 127.20 422.10 L 120.40 424.70 L 114.50 426.30 L 112.70 426.30 L 110.60 425.30 L 109.60 423.60 L 109.70 422.70 L 111.30 420.70 L 113.20 419.40 L 132.30 410.00 L 144.80 404.40 L 154.70 401.20 L 158.80 400.20 L 160.60 400.10 L 161.90 400.40 L 162.90 401.00 L 163.30 401.80 L 163.20 403.10 L 162.50 404.20 L 160.10 406.20 L 154.20 409.80 L 150.60 411.50 Z" fill="#e24e6a" fill-rule="evenodd" group-id="3,12,31" node-id="636" stroke="none" target-height="71.100006" target-width="73.299995" target-x="109.6" target-y="400.1"></path></g><g node-id="796"><g node-id="839"><g node-id="864"><path d="M 130.60 440.40 L 129.90 440.40 L 129.20 441.10 L 129.20 443.40 L 129.60 444.50 L 130.20 445.30 L 130.90 445.70 L 131.80 445.40 L 132.10 444.80 L 132.00 442.90 L 130.60 440.40 Z" fill="#ffffff" fill-rule="evenodd" group-id="3,12,32,75,100" node-id="645" stroke="none" target-height="5.3000183" target-width="2.9000092" target-x="129.2" target-y="440.4"></path></g><path d="M 126.70 436.80 L 127.70 437.60 L 128.30 437.70 L 129.10 437.30 L 129.60 436.60 L 129.80 435.60 L 130.00 429.50 L 129.90 427.40 L 129.60 426.50 L 129.00 425.80 L 127.70 425.70 L 126.80 427.20 L 126.20 431.00 L 126.20 435.20 L 126.70 436.80 Z" fill="#ffffff" fill-rule="evenodd" group-id="3,12,32,75,101" node-id="650" stroke="none" target-height="12" target-width="3.800003" target-x="126.2" target-y="425.7"></path></g><g node-id="840"><g node-id="866"><path d="M 169.80 438.90 L 169.30 442.30 L 169.80 446.80 L 170.30 449.00 L 170.90 449.80 L 171.60 450.10 L 172.60 449.40 L 172.90 448.00 L 172.40 442.40 L 171.30 438.90 L 169.80 438.90 Z" fill="#ffffff" fill-rule="evenodd" group-id="3,12,32,76,102" node-id="658" stroke="none" target-height="11.200012" target-width="3.5999908" target-x="169.3" target-y="438.9"></path></g><path d="M 166.80 447.10 L 165.80 447.20 L 165.20 447.90 L 164.80 448.80 L 164.70 451.10 L 165.70 452.80 L 166.50 452.90 L 167.00 452.60 L 168.20 449.90 L 168.10 448.00 L 167.60 447.40 L 166.80 447.10 Z" fill="#ffffff" fill-rule="evenodd" group-id="3,12,32,76,103" node-id="663" stroke="none" target-height="5.799988" target-width="3.5" target-x="164.7" target-y="447.1"></path></g></g></g></g><g node-id="768"><g node-id="777"><g node-id="797"><path d="M 315.50 115.40 L 328.60 116.50 L 341.00 118.20 L 353.20 120.40 L 364.90 123.10 L 363.40 135.60 L 363.40 137.80 L 363.90 140.10 L 364.70 141.70 L 365.90 143.00 L 374.60 148.50 L 376.90 151.30 L 377.90 153.50 L 378.60 155.90 L 379.00 159.10 L 376.80 177.40 L 369.50 224.30 L 366.40 242.10 L 361.50 266.60 L 360.50 269.90 L 359.40 272.60 L 357.20 275.80 L 354.40 278.70 L 351.50 280.70 L 348.50 281.70 L 345.10 282.30 L 337.90 282.30 L 331.20 281.60 L 303.60 277.60 L 294.30 275.70 L 288.60 274.10 L 283.30 271.80 L 281.00 270.30 L 279.20 268.70 L 277.60 266.40 L 276.50 264.00 L 275.70 261.50 L 275.00 257.40 L 274.90 252.90 L 276.40 236.10 L 282.40 193.40 L 288.20 157.90 L 290.30 148.10 L 292.30 142.60 L 293.70 140.20 L 296.30 137.70 L 300.10 135.90 L 308.80 133.70 L 310.30 132.60 L 311.20 131.40 L 312.70 128.00 L 314.60 118.40 L 315.50 115.40 Z" fill="#f6bd4a" fill-rule="evenodd" group-id="4,13,33" node-id="676" stroke="none" target-height="166.9" target-width="104.100006" target-x="274.9" target-y="115.4"></path></g><g node-id="798"><g node-id="841"><path d="M 290.80 176.40 L 290.80 172.10 L 291.20 169.70 L 292.80 165.50 L 293.80 163.90 L 295.70 162.50 L 299.20 162.30 L 321.20 166.00 L 344.70 170.90 L 363.20 176.30 L 367.80 178.10 L 370.00 179.80 L 370.50 180.70 L 370.60 184.20 L 369.30 189.70 L 368.40 191.10 L 367.40 192.10 L 364.50 193.00 L 362.60 193.00 L 356.50 192.10 L 327.90 185.80 L 298.70 180.30 L 294.40 179.10 L 292.40 178.00 L 290.80 176.40 Z" fill="#1a4e72" fill-rule="evenodd" group-id="4,13,34,77" node-id="683" stroke="none" target-height="30.699997" target-width="79.80002" target-x="290.8" target-y="162.3"></path></g><g node-id="842"><g node-id="868"><path d="M 293.20 212.20 L 335.20 220.00 L 351.30 222.00 L 354.60 222.10 L 356.10 221.30 L 356.50 220.50 L 356.20 219.60 L 354.40 218.00 L 351.40 216.80 L 336.70 212.80 L 312.30 207.30 L 290.70 203.40 L 281.00 202.60 L 280.00 209.50 L 293.20 212.20 Z" fill="#1a4e72" fill-rule="nonzero" group-id="4,13,34,78,104" node-id="690" stroke="none" target-height="19.5" target-width="76.5" target-x="280" target-y="202.6"></path></g><g node-id="869"><path d="M 308.50 230.10 L 315.50 230.90 L 318.70 230.40 L 319.80 229.40 L 319.80 227.70 L 318.40 226.30 L 316.80 225.50 L 304.80 222.50 L 283.40 218.70 L 278.90 218.00 L 278.10 223.60 L 293.20 227.30 L 308.50 230.10 Z" fill="#1a4e72" fill-rule="nonzero" group-id="4,13,34,78,105" node-id="695" stroke="none" target-height="12.899994" target-width="41.69998" target-x="278.1" target-y="218"></path></g><path d="M 338.00 250.10 L 343.10 250.50 L 346.00 250.10 L 347.00 249.60 L 347.40 248.80 L 347.40 247.60 L 346.90 246.70 L 344.90 245.30 L 333.60 242.10 L 326.80 240.60 L 298.90 235.60 L 284.30 233.90 L 276.80 233.50 L 275.80 241.00 L 298.90 244.00 L 338.00 250.10 Z" fill="#1a4e72" fill-rule="nonzero" group-id="4,13,34,78,106" node-id="700" stroke="none" target-height="17" target-width="71.600006" target-x="275.8" target-y="233.5"></path></g></g></g><g node-id="778"><g node-id="799"><g node-id="843"><path d="M 304.50 88.20 L 308.30 87.70 L 312.80 87.90 L 322.30 89.30 L 329.00 91.00 L 340.50 96.30 L 348.90 99.10 L 371.90 100.90 L 375.40 101.40 L 380.00 103.20 L 383.80 105.50 L 385.20 106.90 L 386.00 108.50 L 386.30 110.10 L 385.70 116.00 L 384.00 122.10 L 382.60 125.40 L 380.80 127.70 L 379.30 128.30 L 377.50 128.60 L 373.50 128.30 L 346.70 122.40 L 317.80 117.40 L 307.50 114.70 L 302.30 112.70 L 300.90 111.80 L 298.90 109.50 L 298.50 106.70 L 299.90 94.00 L 300.80 91.60 L 301.70 90.10 L 302.90 89.00 L 304.50 88.20 Z" fill="#e24e6a" fill-rule="evenodd" group-id="4,14,35,79" node-id="712" stroke="none" target-height="40.90001" target-width="87.79999" target-x="298.5" target-y="87.7"></path></g><path d="M 314.10 90.60 L 314.30 91.50 L 315.10 92.40 L 317.40 93.90 L 319.80 95.00 L 335.30 99.50 L 351.00 103.10 L 363.20 105.20 L 371.40 105.90 L 375.00 105.10 L 375.80 104.40 L 376.20 103.50 L 376.10 102.40 L 375.60 101.50 L 359.90 97.10 L 343.20 93.10 L 326.30 89.90 L 315.80 88.30 L 314.50 89.00 L 314.10 90.60 Z" fill="#ff8c9c" fill-rule="nonzero" group-id="4,14,35,80" node-id="717" stroke="none" target-height="17.599998" target-width="62.100006" target-x="314.1" target-y="88.3"></path></g><g node-id="800"><g node-id="845"><g node-id="871"><path d="M 323.30 272.70 L 325.20 271.90 L 328.00 271.50 L 334.20 271.50 L 338.30 272.30 L 338.90 272.80 L 339.20 273.50 L 339.00 274.40 L 338.30 275.00 L 336.40 275.70 L 331.60 276.00 L 328.50 275.90 L 323.50 274.80 L 323.10 273.80 L 323.30 272.70 Z" fill="#ffffff" fill-rule="evenodd" group-id="4,14,36,81,107" node-id="727" stroke="none" target-height="4.5" target-width="16.100006" target-x="323.1" target-y="271.5"></path></g><g node-id="872"><path d="M 339.20 268.30 L 339.40 266.50 L 341.20 265.20 L 344.50 264.80 L 345.80 265.10 L 347.00 266.20 L 347.20 267.00 L 346.90 267.70 L 346.00 268.50 L 343.30 269.70 L 340.60 269.90 L 339.70 269.30 L 339.20 268.30 Z" fill="#ffffff" fill-rule="evenodd" group-id="4,14,36,81,108" node-id="732" stroke="none" target-height="5.100006" target-width="8" target-x="339.2" target-y="264.8"></path></g><path d="M 349.00 274.20 L 348.60 273.20 L 348.80 272.00 L 350.70 269.70 L 353.50 268.10 L 355.20 268.10 L 355.80 268.80 L 355.90 269.50 L 355.10 271.50 L 354.20 272.50 L 351.40 274.40 L 349.70 274.60 L 349.00 274.20 Z" fill="#ffffff" fill-rule="evenodd" group-id="4,14,36,81,109" node-id="737" stroke="none" target-height="6.5" target-width="7.299988" target-x="348.6" target-y="268.1"></path></g><g node-id="846"><g node-id="874"><path d="M 310.30 142.30 L 310.10 143.00 L 309.10 143.60 L 306.10 144.00 L 302.90 143.70 L 301.80 143.30 L 301.30 142.70 L 301.80 141.60 L 302.50 141.20 L 305.60 140.70 L 308.80 141.10 L 309.90 141.60 L 310.30 142.30 Z" fill="#ffffff" fill-rule="evenodd" group-id="4,14,36,82,110" node-id="745" stroke="none" target-height="3.300003" target-width="9" target-x="301.3" target-y="140.7"></path></g><path d="M 313.70 141.90 L 315.70 141.40 L 318.70 141.60 L 331.00 143.30 L 348.30 146.90 L 359.50 150.10 L 365.10 152.30 L 367.00 153.60 L 367.60 154.50 L 367.70 155.40 L 367.40 156.10 L 366.10 156.80 L 363.40 156.70 L 316.50 145.00 L 313.90 143.80 L 313.40 142.70 L 313.70 141.90 Z" fill="#ffffff" fill-rule="evenodd" group-id="4,14,36,82,111" node-id="750" stroke="none" target-height="15.400009" target-width="54.30002" target-x="313.4" target-y="141.4"></path></g><g node-id="847"><g node-id="876"><path d="M 316.80 96.40 L 316.90 95.60 L 316.30 94.70 L 313.70 93.00 L 310.80 91.90 L 309.50 91.80 L 308.90 92.10 L 308.80 93.30 L 309.30 94.00 L 311.90 95.80 L 314.90 96.80 L 316.20 96.80 L 316.80 96.40 Z" fill="#ffffff" fill-rule="evenodd" group-id="4,14,36,83,112" node-id="758" stroke="none" target-height="5" target-width="8.100006" target-x="308.8" target-y="91.8"></path></g><path d="M 319.70 98.20 L 321.30 99.50 L 324.10 100.60 L 335.90 104.40 L 353.10 108.60 L 364.50 110.60 L 370.50 111.00 L 372.90 110.70 L 373.70 110.20 L 374.20 109.40 L 374.30 108.60 L 373.40 107.50 L 370.90 106.40 L 323.50 96.60 L 320.70 96.50 L 319.70 97.40 L 319.70 98.20 Z" fill="#ffffff" fill-rule="evenodd" group-id="4,14,36,83,113" node-id="763" stroke="none" target-height="14.5" target-width="54.599976" target-x="319.7" target-y="96.5"></path></g></g></g></g></svg>