<svg viewBox="0 0 1731.33 1072.54" xmlns:xlink="http://www.w3.org/1999/xlink" xmlns="http://www.w3.org/2000/svg"><defs><style>.cls-1,.cls-13,.cls-18,.cls-28,.cls-3,.cls-30,.cls-34,.cls-5{fill:none;}.cls-2{fill:#edf3ff;}.cls-3,.cls-30,.cls-5{stroke:#016efc;}.cls-28,.cls-3,.cls-5{stroke-miterlimit:10;}.cls-18,.cls-28,.cls-3,.cls-30,.cls-5{stroke-width:1.66px;}.cls-3{opacity:0.25;}.cls-11,.cls-13,.cls-26,.cls-27,.cls-3{isolation:isolate;}.cls-4{fill:#8dbffc;}.cls-6{fill:#c6ddff;}.cls-7{fill:#fff;}.cls-8{fill:#f38171;}.cls-9{fill:#7ea8f2;}.cls-10,.cls-27{fill:#508fea;}.cls-11{fill:#88b9ff;opacity:0.61;}.cls-12{fill:#f45b06;}.cls-13{stroke:#edf3ff;opacity:0.5;}.cls-13,.cls-18,.cls-30,.cls-34{stroke-linecap:round;stroke-linejoin:round;}.cls-13,.cls-34{stroke-width:2.22px;}.cls-14{fill:#fac897;}.cls-15{fill:#2b0d0d;}.cls-16{fill:#5b2f2e;}.cls-17{fill:#f29d59;}.cls-18{stroke:#035c8e;}.cls-19{fill:#007bff;}.cls-20{fill:#013bff;}.cls-21{fill:#f97601;}.cls-22{fill:#fcbc29;}.cls-23{fill:#f9a02b;}.cls-24{fill:#f27111;}.cls-25{fill:#0239d1;}.cls-26{opacity:0.54;fill:url(#未命名的渐变_3);}.cls-27{opacity:0.38;}.cls-28{stroke:#fff;}.cls-29{fill:#69a5ff;}.cls-31{fill:#037949;}.cls-32{fill:#12a072;}.cls-33{fill:#e8311f;}.cls-34{stroke:#04794a;}</style><linearGradient gradientUnits="userSpaceOnUse" gradientTransform="matrix(1, 0, 0, -1, 0, 4734.54)" y2="4190.48" x2="1124.07" y1="4483.8" x1="895.73" id="未命名的渐变_3"><stop stop-color="#c6ddff" offset="0"></stop><stop stop-color="#fff" offset="1"></stop></linearGradient></defs><g id="图层_2"><g id="图层_1-2"><rect height="1072.54" width="1731.25" x="0.08" class="cls-1"></rect><path d="M1515.71,194.06c13.17-42.28-10.87-87.51-54.21-102.13a89.23,89.23,0,0,0-59.48.74h-.1a93.11,93.11,0,0,0-17.67,8.73c-26.89,10.3-54.53,8.3-71.88,5.25-.1,0-.33-.1-.43-.1a128.22,128.22,0,0,0-17.35-4.1c-64.07-10.94-128.27,24.93-148.68,85.93-22.28,66.58,15.91,137.79,85.26,159.14,54.43,16.72,122.9,7.26,159-31.13a83.68,83.68,0,0,0,17.12-28.61c11.3-31.56,31.81-34.5,31.81-34.5C1478.19,247.28,1505.06,228.14,1515.71,194.06Z" class="cls-2"></path><path d="M1276.82,142.21h100.84" class="cls-3"></path><path d="M1330.92,200.06h100.95" class="cls-3"></path><path d="M1340.14,172.39h129.15" class="cls-3"></path><path d="M1401.37,176.81v18.83" class="cls-3"></path><path d="M1362.75,149.15V168" class="cls-3"></path><path d="M1441.52,149.15V168" class="cls-3"></path><path d="M1272,289.88c42.24,0,76.48-32.82,76.48-73.31s-34.24-73.31-76.48-73.31-76.49,32.82-76.49,73.31S1229.76,289.88,1272,289.88Z" class="cls-4"></path><path d="M1272,281.36c37.33,0,67.58-29,67.58-64.79s-30.25-64.79-67.58-64.79-67.6,29-67.6,64.79S1234.66,281.36,1272,281.36Z" class="cls-2"></path><path d="M1272,179.23v37.44h28.85" class="cls-5"></path><path d="M1731.33,899.62S1694.8,546.84,1350,484.68c-123-22.2-235.6-81.2-320-169.87-11.52-12.1-23.15-24.93-34.67-38.6-117.42-138.63-313.73-191.64-488-128.53C451.3,168,396.11,199,347.06,245.39A398.51,398.51,0,0,0,228.33,467.32c-14.05,81.94-49.38,219.73-131,256.33a126.45,126.45,0,0,0-23,13C44.52,758.15-16.16,814,4,901.3Z" class="cls-2"></path><path d="M1467.31,901.51S1811.76,938.85,1224,994.6c0,0-49.16,3.78,18.44,20.19,65.84,15.89,65.84,46.71-33.92,51.23-183.25,8.2-877.63,17-968.93-30.4,0,0-58.6-23.14,57.72-31.24,77.91-5.37,3.73-9.25-1.1-9.67-89.1-8.64-241.85-32.93-168.88-94.77Z" class="cls-6"></path><path d="M45.62,900.25H1696" class="cls-5"></path><path d="M445.38,267.48H646.3" class="cls-3"></path><path d="M411.25,295.25H596.59" class="cls-3"></path><path d="M359.24,322.91H608.11" class="cls-3"></path><path d="M379.43,239.81H553.24" class="cls-3"></path><path d="M461.73,299.56v18.93" class="cls-3"></path><path d="M461.73,244.55v18.93" class="cls-3"></path><path d="M536.45,299.56v18.93" class="cls-3"></path><path d="M536.45,244.23v18.93" class="cls-3"></path><path d="M497.94,271.89v18.94" class="cls-3"></path><path d="M574.75,271.89v18.94" class="cls-3"></path><path d="M283.63,804.32H82.82" class="cls-3"></path><path d="M399.73,832H132.42" class="cls-3"></path><path d="M349.58,776.56H175.65" class="cls-3"></path><path d="M192.55,781v18.94" class="cls-3"></path><path d="M276.61,781v18.94" class="cls-3"></path><path d="M192.55,835.35v18.83" class="cls-3"></path><path d="M276.61,835.35v18.83" class="cls-3"></path><path d="M231.07,808.74v18.83" class="cls-3"></path><path d="M154.26,808.74v18.83" class="cls-3"></path><path d="M1245.54,711.66h200.7" class="cls-3"></path><path d="M1129.45,739.43h267.2" class="cls-3"></path><path d="M1179.48,684h173.93" class="cls-3"></path><path d="M1336.52,688.41v18.83" class="cls-3"></path><path d="M1252.46,688.41v18.83" class="cls-3"></path><path d="M1336.52,742.79v18.83" class="cls-3"></path><path d="M1252.46,742.79v18.83" class="cls-3"></path><path d="M1298,716.08V735" class="cls-3"></path><path d="M1374.81,716.08V735" class="cls-3"></path><path d="M646.41,598.69H445.71" class="cls-3"></path><path d="M762.61,626.36H495.31" class="cls-3"></path><path d="M712.47,570.93H538.54" class="cls-3"></path><path d="M555.44,575.34v18.94" class="cls-3"></path><path d="M639.49,575.34v18.94" class="cls-3"></path><path d="M555.44,629.72v18.94" class="cls-3"></path><path d="M639.49,629.72v18.94" class="cls-3"></path><path d="M594,603.11v18.83" class="cls-3"></path><path d="M517.14,603.11v18.83" class="cls-3"></path><path d="M901.54,400.43H1022.9" class="cls-3"></path><path d="M835.59,372.76h173.92" class="cls-3"></path><path d="M917.89,377.5v18.83" class="cls-3"></path><path d="M992.61,377.18V396" class="cls-3"></path><path d="M954.1,404.84v18.94" class="cls-3"></path><path d="M929.19,427.88H807.93" class="cls-3"></path><path d="M995.25,455.54H821.32" class="cls-3"></path><path d="M913,450.81V432" class="cls-3"></path><path d="M838.22,451.12V432.3" class="cls-3"></path><path d="M876.74,423.46V404.53" class="cls-3"></path><path d="M527.9,995.34c80.17,0,145.17-6.27,145.17-14s-65-14-145.17-14-145.18,6.26-145.18,14S447.72,995.34,527.9,995.34Z" class="cls-4"></path><path d="M1242.36,24.82C1242.36,11.15,1060.1,0,835.26,0S428,11.15,428,24.82V40.39c53.33,1.58,751.11,0,814.32,0Z" class="cls-4"></path><path d="M835.26,61.64c224.84,0,407.1-9.52,407.1-21.25S1060.1,19.14,835.26,19.14,428.15,28.66,428.15,40.39,610.42,61.64,835.26,61.64Z" class="cls-2"></path><path d="M1060.54,49.23c0-9-100.85-16.31-225.28-16.31S610,40.18,610,49.23v10.2c29.51,1,415.66,0,450.67,0C1060.54,59.43,1060.54,58.27,1060.54,49.23Z" class="cls-4"></path><path d="M835.26,71.42c124.42,0,225.28-5.28,225.28-11.78S959.68,47.86,835.26,47.86,610,53.13,610,59.64,710.84,71.42,835.26,71.42Z" class="cls-2"></path><path d="M291,137.16H107V355.41H291Z" class="cls-4"></path><path d="M281.66,145.78H116.4V347.52H281.66Z" class="cls-7"></path><path d="M198.59,183.23a9.48,9.48,0,1,0-9.88-9.47A9.68,9.68,0,0,0,198.59,183.23Z" class="cls-6"></path><path d="M202.32,284.1h-7.46c-12.29,0-22.17-9.47-22.17-21.25V208.47c0-11.78,9.88-21.25,22.17-21.25h7.46c12.29,0,22.17,9.47,22.17,21.25v54.38C224.49,274.52,214.5,284.1,202.32,284.1Z" class="cls-6"></path><path d="M215.93,332.06h-2.86a8.4,8.4,0,0,1-8.56-8.21V259a8.4,8.4,0,0,1,8.56-8.21h2.86a8.4,8.4,0,0,1,8.56,8.21v64.89A8.4,8.4,0,0,1,215.93,332.06Z" class="cls-6"></path><path d="M184,332.06h-2.85a8.4,8.4,0,0,1-8.56-8.21V259a8.4,8.4,0,0,1,8.56-8.21H184a8.4,8.4,0,0,1,8.56,8.21v64.89A8.4,8.4,0,0,1,184,332.06Z" class="cls-6"></path><path d="M235,260.43h-1.54a4.32,4.32,0,0,1-4.39-4.21V205a4.32,4.32,0,0,1,4.39-4.21H235a4.32,4.32,0,0,1,4.39,4.21v51.22A4.32,4.32,0,0,1,235,260.43Z" class="cls-6"></path><path d="M163.69,260.43h-1.53a4.31,4.31,0,0,1-4.39-4.21V205a4.31,4.31,0,0,1,4.39-4.21h1.53a4.31,4.31,0,0,1,4.39,4.21v51.22A4.31,4.31,0,0,1,163.69,260.43Z" class="cls-6"></path><path d="M234.25,248.54a2.84,2.84,0,1,0-3-2.84A2.9,2.9,0,0,0,234.25,248.54Z" class="cls-8"></path><path d="M234.25,215.73a2.84,2.84,0,1,0-3-2.84A2.9,2.9,0,0,0,234.25,215.73Z" class="cls-8"></path><path d="M182.57,303a2.84,2.84,0,1,0-3-2.84A2.9,2.9,0,0,0,182.57,303Z" class="cls-8"></path><path d="M864.45,301.35c-78.57,0-132-27.14-134.65-28.51a8.81,8.81,0,0,1-3.84-12.2A9.59,9.59,0,0,1,738.69,257c.66.31,70.34,35.44,164.71,24a9.34,9.34,0,0,1,10.54,7.78,9.1,9.1,0,0,1-8.12,10.1A337.14,337.14,0,0,1,864.45,301.35Z" class="cls-9"></path><path d="M867.3,292.83c-78.57,0-132-27.14-134.64-28.51a8.81,8.81,0,0,1-3.84-12.2,9.6,9.6,0,0,1,12.73-3.68c.65.32,70.33,35.45,164.7,24a9.34,9.34,0,0,1,10.54,7.78,9.09,9.09,0,0,1-8.12,10.1A334.45,334.45,0,0,1,867.3,292.83Z" class="cls-4"></path><path d="M214.5,303a2.84,2.84,0,1,0-3-2.84A2.9,2.9,0,0,0,214.5,303Z" class="cls-8"></path><path d="M163,248.54a2.84,2.84,0,1,0-3-2.84A2.91,2.91,0,0,0,163,248.54Z" class="cls-8"></path><path d="M163,215.73a2.84,2.84,0,1,0-3-2.84A2.91,2.91,0,0,0,163,215.73Z" class="cls-8"></path><path d="M838.66,200.69a13,13,0,0,1-9.44-7.37c-25.13-57.85-6.47-115.8-5.59-118.22A13.15,13.15,0,0,1,839.87,67a12.41,12.41,0,0,1,8.45,15.57c-.22.63-16.57,52,4.82,101.29a12.19,12.19,0,0,1-6.91,16.2A13.49,13.49,0,0,1,838.66,200.69Z" class="cls-9"></path><path d="M844.15,200.69a13,13,0,0,1-9.44-7.37c-25.13-57.85-6.48-115.8-5.6-118.22A13.16,13.16,0,0,1,845.35,67a12.39,12.39,0,0,1,8.45,15.57c-.22.63-16.57,52,4.83,101.29a12.2,12.2,0,0,1-6.91,16.2A13.65,13.65,0,0,1,844.15,200.69Z" class="cls-4"></path><path d="M856.76,84.89c1-9.7-6.32-18.38-16.45-19.38s-19.18,6.06-20.23,15.76,6.33,18.39,16.45,19.39S855.72,94.6,856.76,84.89Z" class="cls-10"></path><path d="M858.39,82.43c2.12-10.13-4.74-20-15.31-22s-20.87,4.53-23,14.67,4.73,20,15.31,22S856.27,92.57,858.39,82.43Z" class="cls-9"></path><path d="M853.23,81.4a13.5,13.5,0,0,0-11-15.85c-7.61-1.46-15,3.27-16.54,10.56a13.49,13.49,0,0,0,11,15.84C844.3,93.42,851.7,88.69,853.23,81.4Z" class="cls-2"></path><path d="M726.84,264.74a11.07,11.07,0,0,1-6.25-2.94c-30.62-28.61-47.74-72.47-49.38-126.75-1.32-40.28,6.14-71.94,6.47-73.2a11.3,11.3,0,0,1,13.5-8.1,10.81,10.81,0,0,1,8.45,12.93c-.33,1.16-27.55,119.6,36.65,179.55a10.51,10.51,0,0,1,.22,15.36A11.12,11.12,0,0,1,726.84,264.74Z" class="cls-9"></path><path d="M733.1,267.37a11.09,11.09,0,0,1-6.26-2.94c-30.61-28.61-47.73-72.47-49.38-126.75-1.32-40.28,6.15-71.94,6.48-73.2a11.29,11.29,0,0,1,13.49-8.1,10.8,10.8,0,0,1,8.45,12.93c-.33,1.16-27.54,119.6,36.65,179.55a10.51,10.51,0,0,1,.22,15.36A11.2,11.2,0,0,1,733.1,267.37Z" class="cls-4"></path><path d="M926.22,270a9.23,9.23,0,0,1-4.82-2l-82.63-67.42a8.69,8.69,0,0,1-1.1-12.51A9.62,9.62,0,0,1,850.73,187l82.63,67.42a8.7,8.7,0,0,1,1.1,12.52A9.12,9.12,0,0,1,926.22,270Z" class="cls-9"></path><path d="M933,267.79a9.26,9.26,0,0,1-4.83-2l-82.63-67.42a8.69,8.69,0,0,1-1.1-12.51,9.62,9.62,0,0,1,13.06-1.06l82.63,67.43a8.69,8.69,0,0,1,1.1,12.51A9.88,9.88,0,0,1,933,267.79Z" class="cls-4"></path><path d="M916.57,231.5l-25,18.41a13,13,0,0,1,2.52-18.72l3-2.21A14.37,14.37,0,0,1,916.57,231.5Z" class="cls-10"></path><path d="M859.15,191.42c1.62-7.74-3.62-15.28-11.7-16.84s-16,3.47-17.57,11.22a14.33,14.33,0,0,0,11.7,16.83C849.66,204.19,857.53,199.17,859.15,191.42Z" class="cls-10"></path><path d="M752.28,264.88c1.62-7.75-3.61-15.28-11.7-16.84s-15.94,3.47-17.56,11.22a14.33,14.33,0,0,0,11.7,16.83C742.8,277.65,750.66,272.63,752.28,264.88Z" class="cls-10"></path><path d="M857.08,189.35c1.62-7.74-3.61-15.28-11.7-16.84s-15.94,3.47-17.56,11.22,3.61,15.28,11.7,16.84S855.46,197.1,857.08,189.35Z" class="cls-9"></path><path d="M852.89,188.55a10.23,10.23,0,0,0-8.35-12,10.64,10.64,0,0,0-12.53,8,10.22,10.22,0,0,0,8.35,12A10.64,10.64,0,0,0,852.89,188.55Z" class="cls-2"></path><path d="M692.71,332.9v21.67L831.2,361l23.15-21.56V316.7Z" class="cls-9"></path><path d="M749,262c.84-7.86-5.12-14.88-13.32-15.69s-15.53,4.9-16.37,12.76,5.11,14.89,13.31,15.7S748.17,269.84,749,262Z" class="cls-9"></path><path d="M706.37,75c1-9.7-6.32-18.38-16.45-19.38s-19.18,6.06-20.23,15.77S676,89.74,686.14,90.74,705.32,84.68,706.37,75Z" class="cls-10"></path><path d="M1032.89,258.12,880.8,358.88l-3.41-4.73c-26.88-37.24-17.11-88.36,21.73-114.12l11.3-7.47c38.85-25.77,92.18-16.41,119.06,20.82Z" class="cls-6"></path><path d="M707.46,70.66c1.11-10.28-6.7-19.48-17.43-20.54s-20.32,6.42-21.43,16.71S675.3,86.31,686,87.37,706.36,81,707.46,70.66Z" class="cls-9"></path><path d="M897.81,291.88c-15-7.78-15.26-25.35-10.87-42.07-32.48,31.66-31.38,77.73-5.81,109l78-51.75a22.11,22.11,0,0,0-6.15-14.1C935.33,275.05,910.64,299.77,897.81,291.88Z" class="cls-11"></path><path d="M746.48,326l-6.91-7.68c31.38-26.3,34.13-70,34.24-70.47l10.53.52C784.12,250.33,781.16,296.82,746.48,326Z" class="cls-9"></path><path d="M1124.51,627.41h-12.29v49.75h12.29Z" class="cls-10"></path><path d="M869.71,682.1H857.42v49.76h12.29Z" class="cls-10"></path><path d="M774,326.17l-6.92-7.68c31.39-26.3,34.13-70.05,34.24-70.47l10.53.52C811.77,250.65,808.81,297.14,774,326.17Z" class="cls-9"></path><path d="M1163,926.13S989.76,969.46,758.66,947.9c0,0-125.2-14.1-192.36-9.47,0,0-161.52-10.1,30.51-22C596.81,916.45,1245.33,904.56,1163,926.13Z" class="cls-4"></path><path d="M744.6,262.46a10.23,10.23,0,0,0-8.34-12,10.64,10.64,0,0,0-12.53,8,10.22,10.22,0,0,0,8.34,12A10.63,10.63,0,0,0,744.6,262.46Z" class="cls-2"></path><path d="M701.78,71.35a13.49,13.49,0,0,0-11-15.85c-7.6-1.46-15,3.26-16.53,10.55a13.49,13.49,0,0,0,11,15.85C692.86,83.36,700.26,78.64,701.78,71.35Z" class="cls-2"></path><path d="M801.68,326.48l-6.91-7.67c31.38-26.3,34.12-70.05,34.23-70.48l10.54.53C839.43,250.86,836.46,297.35,801.68,326.48Z" class="cls-9"></path><path d="M829.33,326.69,822.42,319c31.38-26.3,34.12-70,34.23-70.48l10.54.53C867,251.07,864,297.56,829.33,326.69Z" class="cls-9"></path><path d="M829.33,339.42,692.71,332.9l25-22.72,136.62,6.52Z" class="cls-6"></path><path d="M719.82,317.54l-.33,9.89,99.75,4.73,17.55-16.51.33-10.2Z" class="cls-9"></path><path d="M819,322l-98.76-4.73,18.1-16.52,98.76,4.74Z" class="cls-6"></path><path d="M644.87,679.37s-16.35,6.1-28.31-10.31c0,0-10.31-16.62-21.29-10.31l27.22,59.54s8.22-.42,12.4-7a27.62,27.62,0,0,1,11.85-10.62,18.58,18.58,0,0,1,6.8-2Z" class="cls-12"></path><path d="M963.63,317.93c42-27.81,73.1-54.39,69.52-59.36s-40.52,13.55-82.5,41.36-73.1,54.39-69.51,59.36S921.66,345.74,963.63,317.93Z" class="cls-9"></path><rect height="147.42" width="185.93" y="236.6" x="864.33" class="cls-1"></rect><path d="M599.66,775.61a19.43,19.43,0,0,1-14.37-6.31l-28.42-31.45a17.73,17.73,0,0,1,1.86-25.66A19.64,19.64,0,0,1,585.51,714l18.43,20.41,183.47-96.56a19.47,19.47,0,0,1,14.93-1.37l201,62.38,182-178.18a19.6,19.6,0,0,1,26.77-.32,17.68,17.68,0,0,1,.33,25.67L1022.24,732.17a19.33,19.33,0,0,1-19.42,4.52L798.5,673.27,608.77,773.09A17.11,17.11,0,0,1,599.66,775.61Z" class="cls-9"></path><path d="M997.33,637.3l-114.67-40a4.47,4.47,0,0,1-2.85-5.89c7.35-19.46,29.85-29.45,50-22.41l82.41,28.72a4.46,4.46,0,0,1,2.85,5.89l-11.74,30.82A4.71,4.71,0,0,1,997.33,637.3Z" class="cls-10"></path><path d="M1007.32,778.13l-172.5-52.27V705.35l166.57,50.49a31.51,31.51,0,0,0,31.5-7.79l113.35-114,.55,27.87L1038.92,770.35A31.48,31.48,0,0,1,1007.32,778.13Z" class="cls-9"></path><path d="M1058,943.69c83.45,0,151.11-4.24,151.11-9.47s-67.66-9.46-151.11-9.46-151.1,4.24-151.1,9.46S974.56,943.69,1058,943.69Z" class="cls-9"></path><path d="M1209.12,934.22V921.71H906.91v12.51Z" class="cls-9"></path><path d="M1195.51,533.38,1014.78,711.55a17.46,17.46,0,0,1-17.34,4.11l-193.68-60.9A17.38,17.38,0,0,0,790.38,656L613.27,750a17.52,17.52,0,0,1-20.19-2.84L571,725.54" class="cls-13"></path><path d="M1089.18,545.05s-74.4,48-162.08,18.72A32.84,32.84,0,0,0,917,562c-6.59-.11-16,1.36-20.19,9.67,0,0,18.1-7.46,30.61-1.57l82.41,28.71s54.65,7.89,108.3-26.4Z" class="cls-14"></path><path d="M1058,931.17c83.45,0,151.11-4.23,151.11-9.46s-67.66-9.47-151.11-9.47-151.1,4.24-151.1,9.47S974.56,931.17,1058,931.17Z" class="cls-2"></path><path d="M1064.05,741S975,849.13,1017.19,922H947.4s-29.3-90.45,82.52-163.76Z" class="cls-9"></path><path d="M1230.63,497.61c10.19,6.32,13.38-2.41,20.95-11,2.64-2.73,6-8.83,9.88-2.31a25.21,25.21,0,0,1,.1,8.2s-2.08,38.39-44.66,24.51c0,0-36.32,16.2-53.87,1.26,0,0,11-16.41,14.93-25,5.81,3.15,9.76,6.1,15.9,8C1205.17,504.87,1216.57,489.94,1230.63,497.61Z" class="cls-15"></path><path d="M1202.32,444.18c0,.11,4.93,2,5,2.11s15.14-5.05,32.92,24.82c0,0,18.43-2.1,21.28,13.15a15.51,15.51,0,0,1-4.27,8.94c-7.57,8.52-19.53,19-29.74,12.72-14-7.57-24.46,9.26-35.77,5.47-6.14-1.89-12-6.41-17.77-9.57,3.72-8.1,4.82-17-5-21.24a14.39,14.39,0,0,1-1.54-2.53l1-8.52a4.16,4.16,0,0,1,1-2.21C1179.27,456.49,1200.67,459.75,1202.32,444.18Z" class="cls-16"></path><path d="M1192.88,446.5a14.75,14.75,0,0,1,5.15-3.68c3.19-1.37,7.14-1.79,9.11,3.15-1.64,16.09-27.22,15.57-36.65,27.66a15.84,15.84,0,0,0-3.07,4.53c-2.42-4.74-5.16-15.36,12.95-23.35C1180.37,454.7,1189.15,450.39,1192.88,446.5Z" class="cls-15"></path><path d="M1153.37,509.61a27.1,27.1,0,0,0,11.53-8.94c3.72,2.62,7.9,4.1,12.29,6.1C1171.14,511,1160.51,513.6,1153.37,509.61Z" class="cls-17"></path><path d="M1170.93,464.48l9.32-2.31a90,90,0,0,1,19.1-9.89c16.13-5.47-5.81,36.39-5.81,36.39s9.76-1.78,12.17,5.68c4.06,12.31-20.07,13.15-20.07,13.15-20,12.52-17.12,25.88-17.12,25.88-27.77,0-35.78-22.72-35.78-22.72,8.89,2,15.69.94,20.74-1.16,7,4,17.78,1.37,23.82-2.94-4.39-1.9-8.57-3.48-12.3-6.11.23-.31.33-.42.33-.42-5.59-12.09-1.76-22,5.16-29.55l-1.2-2.74A2.27,2.27,0,0,1,1170.93,464.48Z" class="cls-14"></path><path d="M1169.29,484.89a7.69,7.69,0,0,0,4.82,4.42" class="cls-18"></path><path d="M819.56,616.05c2,0,4,0,5.93.1A8.7,8.7,0,0,0,819.56,616.05Z" class="cls-19"></path><path d="M750.76,618.57l-108.08,58.7V707Z" class="cls-20"></path><path d="M650.47,696.51s-11.09,13-30,4.53c0,0-17.56-9.57-23.81,1.05L651,741s6.91-4.32,7.13-12A26.1,26.1,0,0,1,663,714.08a18.86,18.86,0,0,1,4.93-5.05Z" class="cls-21"></path><path d="M829.44,618.15c45,2.11,86.69,14.73,131.68,17.88a72.27,72.27,0,0,0,26-3l-13.94-14.41c-2.19-1.36-4.39-2.73-6.58-4-.77-.42-1.54-1-2.31-1.37-.22.11-.44.11-.66.21C806,552.52,783,584.92,783,584.92L646.74,698.3l16.79,14.94L787.3,638A18.54,18.54,0,0,1,802,636.56,29.67,29.67,0,0,1,829.44,618.15Z" class="cls-19"></path><path d="M987.13,633a77.57,77.57,0,0,1-26,3c-45-3.15-86.69-15.77-131.68-17.88a29.7,29.7,0,0,0-27.32,18.3.85.85,0,0,0,.33.11l184.68,57.32c7.24,2.21,14.92-1.78,16.9-8.73l7.9-17.14,3-6.42Z" class="cls-20"></path><path d="M1171.58,534.32s-24.36-7.88-38.94-23.56L1088.19,512a12.58,12.58,0,0,0-10.42,5.89c-11.53,18.52-51.36,77.42-104.69,100.77l30.84,66.58C1003.92,685.15,1017.85,698.93,1171.58,534.32Z" class="cls-22"></path><path d="M1118.37,539.27l-37.64,32.18,29,27.35s-89.21,90.25-105.78,86.35L980.32,634s71.44-28.71,79.89-90.66C1060.21,543.37,1079.19,561.36,1118.37,539.27Z" class="cls-23"></path><path d="M969.13,616.15l34.9,69.21c16.56,3.9,105.77-86.35,105.77-86.35l-25.89-24.51C1055.6,604,1024.55,619.31,969.13,616.15Z" class="cls-24"></path><path d="M894.84,626.67a3.14,3.14,0,0,1-3.84,3l-52-9.68c-9.77-1.79-20,.74-27.11,7.26a27.55,27.55,0,0,0-7.24,10L797,635.51s5.93-18.3,25.68-22a18.94,18.94,0,0,1,7.35.1C842.5,616.15,888.15,625.31,894.84,626.67Z" class="cls-25"></path><path d="M898.35,370.45l107.1,242.13,218.48-161.14L1033.54,281.26a23.5,23.5,0,0,0-28.86-2.32l-98.32,65A21.53,21.53,0,0,0,898.35,370.45Z" class="cls-26"></path><path d="M986.36,664.75l-114.67-40a4.46,4.46,0,0,1-2.85-5.89c7.35-19.46,29.84-29.45,50-22.4l82.41,28.71a4.47,4.47,0,0,1,2.86,5.89l-11.75,30.82A4.54,4.54,0,0,1,986.36,664.75Z" class="cls-4"></path><path d="M1002.27,625.2l-82.41-28.71a40.81,40.81,0,0,0-30.18,1.36,75.38,75.38,0,0,1,32.16,10.73c25.56,16.94,54.86,27.66,81.86,26.4l1.42-3.89A4.55,4.55,0,0,0,1002.27,625.2Z" class="cls-27"></path><path d="M1080.73,571.35s-74.4,48-162.08,18.72a32.85,32.85,0,0,0-10.09-1.79c-6.59-.1-16,1.37-20.19,9.68,0,0,18.1-7.47,30.61-1.58l82.41,28.72S1056,633,1109.7,598.69Z" class="cls-14"></path><path d="M1096,585.86l3,6.63c-24.36,21.35-67.81,29.77-111.81,27.77l14.26,4.94s54.65,7.89,108.31-26.4Z" class="cls-17"></path><path d="M1338.71,825.26h83.73" class="cls-28"></path><path d="M1338.71,889.31h83.73" class="cls-28"></path><path d="M1249.39,805.69l-22,95.3h303l-15.37-95.3Z" class="cls-4"></path><path d="M1382.28,886.89c73.32,0,132.77-32.58,132.77-72.78s-59.45-72.79-132.77-72.79-132.78,32.59-132.78,72.79S1308.94,886.89,1382.28,886.89Z" class="cls-29"></path><path d="M1382.28,879.53c73.32,0,132.77-32.59,132.77-72.79S1455.6,734,1382.28,734s-132.78,32.59-132.78,72.78S1308.94,879.53,1382.28,879.53Z" class="cls-6"></path><path d="M1287.79,841.14h192S1387.54,745.84,1287.79,841.14Z" class="cls-4"></path><path d="M1433.52,845.14c6.25-8.1,8.56-15.68,6.91-22.41a11.41,11.41,0,0,0-1.43-3.57l-1-14.84c-.55-12.62-7-15.67-14.6-14.51,0,0-75.5,12.94-75.71,12.94v-5l-6.47,6.1h-11.19l-6.49-6.1v26.92a6.29,6.29,0,0,0,6.49,6.21h15a7.41,7.41,0,0,0,2.2-.31,8.12,8.12,0,0,0,2.31.31h4.6a7.68,7.68,0,0,0-.21,3.58,5.43,5.43,0,0,0,5.37,4.52,1.9,1.9,0,0,0,.77-.11,5.39,5.39,0,0,0,4.72-5.25c.87-.85,3.51-2,5.92-2.74h31.06a7.82,7.82,0,0,0-.22,3.58,5.44,5.44,0,0,0,5.38,4.52,1.92,1.92,0,0,0,.77-.11,5.39,5.39,0,0,0,4.71-5.25c.88-.85,3.51-2,5.92-2.74h13.06a28,28,0,0,1-5.16,9.26,22.76,22.76,0,0,0-4.28,9.15c-1.31,6.73.89,10.31,3,12.09a4.69,4.69,0,0,0,6.26-.31,4,4,0,0,0-.33-5.89c-.44-.42-.77-1.9-.23-4.31A13.88,13.88,0,0,1,1433.52,845.14Z" class="cls-7"></path><path d="M1331.36,819.68a8.75,8.75,0,0,1,6.91,0" class="cls-30"></path><path d="M852.59,600.69a359.54,359.54,0,0,0-39.17-8.2c-.33,0-.77.1-.88.42a12.54,12.54,0,0,1-8.45,10.1c-4.93,1.58-9.76-.53-14.7-1-3.73-.32-8.23.11-10.65,3.16-1.42,1.78-1.2,3.78-2.08,5.78-1.65,3.79-6.25,6.21-9.44,8.63-6.8,5.15-13.71,10.3-20.52,15.46q-40.65,30.6-81.42,61.21c-.66.53.33,1.48,1,1q50-37.71,100.19-75.42c3.18-2.41,7.46-4.73,10-7.78,3-3.58,1.76-8.83,7.46-10.41,7.68-2.11,15.26,3.78,22.83-.32a13.62,13.62,0,0,0,5.81-5.78,30.16,30.16,0,0,1,1.1-2.84c1.76-1.47,5.71,0,7.79.42,10.43,1.79,20.74,4.1,30.84,6.84C853,602.27,853.47,601,852.59,600.69Z" class="cls-7"></path><path d="M1014.89,776.56S942.47,839,962.22,913.71" class="cls-13"></path><path d="M853,82.25l-17.88-7.68v5.26l15.91,6.52A10.14,10.14,0,0,0,853,82.25Z" class="cls-10"></path><path d="M701.6,72.26l-17.88-7.68v5.26l15.91,6.52A10.39,10.39,0,0,0,701.6,72.26Z" class="cls-10"></path><path d="M386.56,927.07c7.9-4.31,11.08-7.89,12.4-10.52a10.51,10.51,0,0,1,11.19-5.68c14.38,2.53,1.21,30.51,1.21,30.51,2.41,9.15,11.74,16.09,15.14,18.3,1.54,1.05,3.08,2.21,4.5,3.36,9.44,8.1,11.2,13.58,8.12,21.88L366.7,939C373.5,929.7,386.56,927.07,386.56,927.07Z" class="cls-31"></path><path d="M439.67,983.45a17.72,17.72,0,0,1-4.39,7.36l-71.76-45.54a22.46,22.46,0,0,1,4.17-7.47Z" class="cls-7"></path><path d="M552.59,957.58c8.34-15.78,2.3-19.15,2.3-19.15,19.53-24.3,26.67,17.88,26.67,17.88,7.35,6.31,19.09,7.15,23.15,7.26a35.48,35.48,0,0,1,5.71.42c12.72,1.79,17.55,7.89,19.31,13.89H542.82C542.82,966.94,552.59,957.58,552.59,957.58Z" class="cls-31"></path><path d="M629.4,976.71a16.18,16.18,0,0,1,.44,8.21H543.7a21.38,21.38,0,0,1-.88-8.21Z" class="cls-7"></path><path d="M606,592.38l-91.3,10.84L543.26,760,606,663.38Z" class="cls-31"></path><path d="M540.41,744.37l4.82,26.3V952.74l42.58-1.58L606,770.67V628.78Z" class="cls-32"></path><path d="M479.39,608.27C464.69,659.7,456.13,759,456.13,759L384.7,926.86,418.27,945l97-153.14L579,625.62C545.23,628.67,509.13,621.62,479.39,608.27Z" class="cls-32"></path><path d="M495.53,587.33c-7.14,5.58-13.17,19.57-18.22,37.45,29.74,13.36,63.53,15.57,97.22,12.31l11.74-30.51Z" class="cls-31"></path><path d="M636.31,474.79s-2.52,62.48,97.34-26c0,0,24.14-35.24,34.23-34.08,0,0,36.76,9.36-21.18,47.86,0,0-89.65,109.91-125.2,82.36,0,0-22.39-15.47-30.84-44.18Z" class="cls-14"></path><path d="M623.14,527.38C617,518,610.31,503.08,606,492.57l-15.7,8.94c8.45,28.82,30.84,44.17,30.84,44.17,21.4,16.62,63.2-17.88,92.5-47C685.69,517.81,638.29,550.21,623.14,527.38Z" class="cls-17"></path><path d="M481.92,475.42l-35-30.61S412.79,510.55,437.26,582l32.92-37.86C469.63,523.59,472.7,500.45,481.92,475.42Z" class="cls-14"></path><path d="M551.71,343.73c2.08-6,7.68-12.93,22.38-12.3,0,0,15.37,1.58,11.85,26.71a80.39,80.39,0,0,0-7.24,11.05c-1.75,3.15-8.67,7.47-10,7.47C553.13,376.13,550.83,357.83,551.71,343.73Z" class="cls-17"></path><path d="M542.93,380.23s9.66-17.25,7.57-27.66c0,0,1.1-9.68,2.63-14.31,3.52,10.84,10.87,40.5,25.46,30.93-2.63,5.26-.22,14.2,2.75,17.77,0,0,41,76.47-32.7,9.05C548.75,396,541,393.06,542.93,380.23Z" class="cls-14"></path><path d="M553,321c1.1-2,13.72,2.32,16.25,2,.76,3.58,1.86,12.41-4.83,17a29.18,29.18,0,0,1-2.2,9.36c-2.52,5.68-10.31,6.84-14.81,2.53C538,341.21,546.77,329,553,321Z" class="cls-33"></path><path d="M530.86,305.87a15.15,15.15,0,0,1,2.41-5.16c2.53-3.57,7.25-11.14,7.79-16.09,0,0,5.71-26.61,54.65-9.67,0,0,9.66,2.41,16.46,1.15,4.72-.84,9.44,2.11,10.1,6.63a8.35,8.35,0,0,1-2,6.63A36.83,36.83,0,0,1,605.37,293c-14.6.31-19.65,11.78-32.92,16-3.62,1.16,0,7.16.44,10.73-1.54.74-3,1.26-4.17,1.79,0,0,.22.63.44,1.58-2.64.31-4.94,1.05-6,3.05-6.25,8-8.67,19.56-15.91,26l-.33-.32C539.31,343.52,525.92,325.85,530.86,305.87Z" class="cls-21"></path><path d="M605.59,284.1c5.26-.11,10.42,2.1,14.92,5-1.76,2.31-4.72,4.62-9.55,7.15,0,0-23.59,16.62-37.74,23.35a39.06,39.06,0,0,1-.44-10.73C574,293.77,591,284.41,605.59,284.1Z" class="cls-33"></path><path d="M608.33,298.51c1.21,10.72,3.73,49.22-22.93,59.95,0,0-19.1,4.73-23.82-19,0,0-3.18.21-6-9.78,0,0-1.1-11.57,7-10a2.46,2.46,0,0,0,3.07-2.42c-.22-8.42,2.86-28.08,39.4-22A3.66,3.66,0,0,1,608.33,298.51Z" class="cls-14"></path><path d="M604.71,310.5s-6.15-1.9-8.12,1.78l-1.32,20.09-5.49-1.26" class="cls-18"></path><path d="M593.19,343.63,585.83,342" class="cls-18"></path><path d="M456.46,454.17l-9.44-8.3S412.9,511.6,437.37,583l5.48-6.31a136.34,136.34,0,0,1-3.62-17.56C435.39,524.12,439.12,485.73,456.46,454.17Z" class="cls-17"></path><path d="M548.2,368.56l36.43,41.23L581.45,387l22.71,21.36a84.38,84.38,0,0,1,22.94,36.39L640,485.62l-25.35,12.63L609.1,617.84s-51,30.29-131.68,3l3.51-143.37-35-30.6S470.73,379.5,548.2,368.56Z" class="cls-32"></path><path d="M552.7,373.5l-4.39-4.94C470.84,379.5,446,446.92,446,446.92l1.09.94C470.18,411.16,508.91,383.39,552.7,373.5Z" class="cls-31"></path><path d="M493.77,462.48c-3.84,5.26-8.56,10-13.06,14.94l.11.1-3.51,143.37A225.31,225.31,0,0,0,512,629.62C478.52,581.87,472.37,517.18,493.77,462.48Z" class="cls-31"></path><path d="M470.29,533l-38.41,28.82c6.36,37.86,29.74,71,56.62,94.76L508.25,646S472.81,606,470.29,533Z" class="cls-14"></path><path d="M438.57,552.41l-7.79,4.32c5.6,39.33,31,77.1,57.83,100.87l3.51-1.9c-27.21-26.61-47.73-59.32-52.78-96.55C439.12,558.62,438.68,553.05,438.57,552.41Z" class="cls-17"></path><path d="M609,437.45l5.81,51.75C614.91,489.31,622.38,455.65,609,437.45Z" class="cls-31"></path><path d="M477.31,663.38l39.39-22.09" class="cls-34"></path><path d="M473.36,673.16,516,657.81" class="cls-34"></path><path d="M499.47,684c-4.06,22.3-8.22,44.59-16.78,65.84-1.87,4.63-3.3,8.84-3.3,13.88,0,4.11-.22,7.37-3.18,10.63-1.64,1.79-3.4,3.57-4.94,5.47-6.69,8.62-11,18.83-15.69,28.4-14.48,29.24-28.86,58.58-42.79,88.14-4,8.41-7.9,16.72-11.86,25.14-.32.73.77,1.47,1.21.63q13.83-29.67,28-59.11c7.79-16.2,15.81-32.29,23.82-48.49,4.82-9.89,9.21-20.2,15.25-29.45,2.74-4.32,6.58-7.58,9.55-11.68s1.53-8.73,2.08-13.36c.77-6.31,4.17-12.2,6.26-18.09,2.19-6.2,4.06-12.51,5.7-18.82,3.29-12.73,5.6-25.78,7.9-38.71A.64.64,0,1,0,499.47,684Z" class="cls-7"></path><path d="M502.11,412.52a94.1,94.1,0,0,0-29.19,31.56c-.44.73.77,1.37,1.21.63a93.3,93.3,0,0,1,28.64-31.14C503.54,413.15,502.77,412,502.11,412.52Z" class="cls-7"></path><path d="M519,461.33C516.59,478,511.66,493.51,505,509c-2.41,5.47-4.39,11.15-3.4,17.25.88,5,3.62,9.68,6.47,14,3.3,4.95,7,9.79,9.11,15.36,2.75,7.78-1.2,13.36-3.95,20.4-4,10.31-.33,21.88,6.81,30.19,10.09,11.68,26.44,15.57,41.58,16.41a.69.69,0,0,0,0-1.37c-18.87-.94-39.72-7.67-46.74-26.19A27.85,27.85,0,0,1,513,583.44c.33-5.47,3.18-9.67,5.16-14.72A19.05,19.05,0,0,0,518,554c-5.49-13.78-19.31-23.14-13.83-39.44,2.86-8.41,7-16.41,9.77-24.82a162.77,162.77,0,0,0,6.36-28.09A.67.67,0,0,0,519,461.33Z" class="cls-7"></path><path d="M548.42,385.28l33.79,31.56" class="cls-34"></path><path d="M775.67,469.22l-39.94-33.35a3.63,3.63,0,0,1-1.21-3.68l28.42-97.71a3.93,3.93,0,0,1,6.15-1.79L809,366a3.64,3.64,0,0,1,1.21,3.68l-28.42,97.72A3.83,3.83,0,0,1,775.67,469.22Z" class="cls-16"></path><path d="M740.56,446.08a4.57,4.57,0,0,1,0-6.74l8.89-8.62a6.2,6.2,0,0,1,3.51-1.58,1.56,1.56,0,0,1,1.86,1.79c-1,4.63-7.13,15-7.13,15A5.09,5.09,0,0,1,740.56,446.08Z" class="cls-14"></path></g></g></svg>